<svg xmlns="http://www.w3.org/2000/svg" xmlns:xlink="http://www.w3.org/1999/xlink" viewBox="0 0 94.98 106.89"><defs><style>.cls-1{mask:url(#mask);filter:url(#luminosity-noclip-5);}.cls-14,.cls-17,.cls-2,.cls-26,.cls-28,.cls-4,.cls-6,.cls-8{mix-blend-mode:multiply;}.cls-2{fill:url(#linear-gradient);}.cls-3{mask:url(#mask-2);filter:url(#luminosity-noclip-6);}.cls-4{fill:url(#linear-gradient-2);}.cls-5{mask:url(#mask-3);filter:url(#luminosity-noclip-7);}.cls-6{fill:url(#linear-gradient-3);}.cls-7{mask:url(#mask-4);filter:url(#luminosity-noclip-8);}.cls-8{fill:url(#linear-gradient-4);}.cls-9{isolation:isolate;}.cls-10{fill:#13589c;}.cls-11{fill:url(#linear-gradient-5);}.cls-12{fill:url(#linear-gradient-6);}.cls-13,.cls-20{fill:#fff;}.cls-14,.cls-17{opacity:0.5;}.cls-14{fill:url(#linear-gradient-7);}.cls-15{fill:url(#linear-gradient-8);}.cls-16{fill:url(#linear-gradient-9);}.cls-17{fill:url(#linear-gradient-10);}.cls-18,.cls-32,.cls-35{opacity:0.2;}.cls-19{fill:url(#linear-gradient-11);}.cls-20,.cls-37,.cls-39{mix-blend-mode:soft-light;}.cls-21{fill:url(#radial-gradient);}.cls-22{fill:url(#linear-gradient-12);}.cls-23{fill:url(#linear-gradient-13);}.cls-24{fill:url(#radial-gradient-2);}.cls-25{mask:url(#mask-5);}.cls-26,.cls-28,.cls-30{opacity:0.3;}.cls-26{fill:url(#linear-gradient-14);}.cls-27{mask:url(#mask-6);}.cls-28{fill:url(#linear-gradient-15);}.cls-29{fill:#ff9d09;}.cls-30,.cls-32,.cls-33,.cls-35{mix-blend-mode:color-burn;}.cls-31,.cls-32,.cls-33{fill:#767676;}.cls-33{opacity:0.6;}.cls-34{fill:#e78b00;}.cls-35{fill:#a6a6a6;}.cls-36{mask:url(#mask-7);}.cls-37,.cls-39{opacity:0.8;}.cls-37{fill:url(#linear-gradient-16);}.cls-38{mask:url(#mask-8);}.cls-39{fill:url(#linear-gradient-17);}.cls-40{filter:url(#luminosity-noclip-4);}.cls-41{filter:url(#luminosity-noclip-3);}.cls-42{filter:url(#luminosity-noclip-2);}.cls-43{filter:url(#luminosity-noclip);}</style><filter id="luminosity-noclip" x="21.26" y="-8310.7" width="51.06" height="32766" filterUnits="userSpaceOnUse" color-interpolation-filters="sRGB"><feFlood flood-color="#fff" result="bg"/><feBlend in="SourceGraphic" in2="bg"/></filter><mask id="mask" x="21.26" y="-8310.7" width="51.06" height="32766" maskUnits="userSpaceOnUse"><g class="cls-43"/></mask><linearGradient id="linear-gradient" x1="27.02" y1="49.14" x2="66.34" y2="17.21" gradientUnits="userSpaceOnUse"><stop offset="0"/><stop offset="0.16" stop-color="#020202"/><stop offset="0.23" stop-color="#090909"/><stop offset="0.28" stop-color="#161616"/><stop offset="0.33" stop-color="#272727"/><stop offset="0.36" stop-color="#3f3f3f"/><stop offset="0.4" stop-color="#5b5b5b"/><stop offset="0.43" stop-color="#7d7d7d"/><stop offset="0.46" stop-color="#a5a5a5"/><stop offset="0.48" stop-color="#d0d0d0"/><stop offset="0.5" stop-color="#fff"/><stop offset="0.53" stop-color="#dcdcdc"/><stop offset="0.58" stop-color="#a9a9a9"/><stop offset="0.63" stop-color="#7c7c7c"/><stop offset="0.69" stop-color="#565656"/><stop offset="0.74" stop-color="#363636"/><stop offset="0.8" stop-color="#1e1e1e"/><stop offset="0.86" stop-color="#0d0d0d"/><stop offset="0.92" stop-color="#030303"/><stop offset="1"/></linearGradient><filter id="luminosity-noclip-2" x="21.26" y="-8310.7" width="51.06" height="32766" filterUnits="userSpaceOnUse" color-interpolation-filters="sRGB"><feFlood flood-color="#fff" result="bg"/><feBlend in="SourceGraphic" in2="bg"/></filter><mask id="mask-2" x="21.26" y="-8310.7" width="51.06" height="32766" maskUnits="userSpaceOnUse"><g class="cls-42"/></mask><linearGradient id="linear-gradient-2" x1="49.26" y1="7.68" x2="44.31" y2="58.59" gradientUnits="userSpaceOnUse"><stop offset="0"/><stop offset="0.5" stop-color="#fff"/><stop offset="0.53" stop-color="#dcdcdc"/><stop offset="0.58" stop-color="#a9a9a9"/><stop offset="0.63" stop-color="#7c7c7c"/><stop offset="0.69" stop-color="#565656"/><stop offset="0.74" stop-color="#363636"/><stop offset="0.8" stop-color="#1e1e1e"/><stop offset="0.86" stop-color="#0d0d0d"/><stop offset="0.92" stop-color="#030303"/><stop offset="1"/></linearGradient><filter id="luminosity-noclip-3" x="16.02" y="-8310.7" width="50.3" height="32766" filterUnits="userSpaceOnUse" color-interpolation-filters="sRGB"><feFlood flood-color="#fff" result="bg"/><feBlend in="SourceGraphic" in2="bg"/></filter><mask id="mask-3" x="16.02" y="-8310.7" width="50.3" height="32766" maskUnits="userSpaceOnUse"><g class="cls-41"/></mask><linearGradient id="linear-gradient-3" x1="62.74" y1="54.14" x2="22.3" y2="17.59" gradientUnits="userSpaceOnUse"><stop offset="0"/><stop offset="1" stop-color="#fff"/></linearGradient><filter id="luminosity-noclip-4" x="22.07" y="-8310.7" width="47.89" height="32766" filterUnits="userSpaceOnUse" color-interpolation-filters="sRGB"><feFlood flood-color="#fff" result="bg"/><feBlend in="SourceGraphic" in2="bg"/></filter><mask id="mask-4" x="22.07" y="-8310.7" width="47.89" height="32766" maskUnits="userSpaceOnUse"><g class="cls-40"/></mask><linearGradient id="linear-gradient-4" x1="61.97" y1="43.96" x2="33.1" y2="15.96" xlink:href="#linear-gradient-3"/><linearGradient id="linear-gradient-5" y1="71.95" x2="51.66" y2="71.95" gradientUnits="userSpaceOnUse"><stop offset="0" stop-color="#721500"/><stop offset="1" stop-color="#921d00"/></linearGradient><linearGradient id="linear-gradient-6" x1="44.04" y1="48.47" x2="10.85" y2="94.26" gradientUnits="userSpaceOnUse"><stop offset="0" stop-color="#a51500"/><stop offset="1" stop-color="#dd1d00"/></linearGradient><linearGradient id="linear-gradient-7" x1="27.3" y1="48.45" x2="27.3" y2="104.44" gradientUnits="userSpaceOnUse"><stop offset="0" stop-color="#858585"/><stop offset="0.01" stop-color="#888"/><stop offset="0.08" stop-color="#acacac"/><stop offset="0.15" stop-color="#cacaca"/><stop offset="0.23" stop-color="#e2e2e2"/><stop offset="0.31" stop-color="#f2f2f2"/><stop offset="0.4" stop-color="#fcfcfc"/><stop offset="0.52" stop-color="#fff"/><stop offset="0.6" stop-color="#fafafa"/><stop offset="0.69" stop-color="#ebebeb"/><stop offset="0.79" stop-color="#d3d3d3"/><stop offset="0.89" stop-color="#b1b1b1"/><stop offset="1" stop-color="#868686"/><stop offset="1" stop-color="#858585"/></linearGradient><linearGradient id="linear-gradient-8" x1="43.93" y1="72.74" x2="94.98" y2="72.74" xlink:href="#linear-gradient-5"/><linearGradient id="linear-gradient-9" x1="58.69" y1="44.12" x2="79.49" y2="95.19" xlink:href="#linear-gradient-6"/><linearGradient id="linear-gradient-10" x1="69.6" y1="48.68" x2="69.6" y2="102.83" xlink:href="#linear-gradient-7"/><linearGradient id="linear-gradient-11" x1="11.73" y1="33.22" x2="77.71" y2="33.22" gradientUnits="userSpaceOnUse"><stop offset="0" stop-color="#ffd945"/><stop offset="1" stop-color="#ff9d09"/></linearGradient><radialGradient id="radial-gradient" cx="45.76" cy="31.12" r="43.42" gradientUnits="userSpaceOnUse"><stop offset="0" stop-color="#ffda45"/><stop offset="1" stop-color="#ff9d09"/></radialGradient><linearGradient id="linear-gradient-12" x1="17.62" y1="32.74" x2="71.61" y2="32.74" xlink:href="#linear-gradient-11"/><linearGradient id="linear-gradient-13" x1="19.43" y1="33.09" x2="74.15" y2="33.09" gradientUnits="userSpaceOnUse"><stop offset="0" stop-color="#ff9d09"/><stop offset="1" stop-color="#ffe373"/></linearGradient><radialGradient id="radial-gradient-2" cx="46.79" cy="33.09" r="25.53" gradientUnits="userSpaceOnUse"><stop offset="0" stop-color="#ffdf10"/><stop offset="1" stop-color="#ffc441"/></radialGradient><filter id="luminosity-noclip-5" x="21.26" y="7.56" width="51.06" height="51.06" filterUnits="userSpaceOnUse" color-interpolation-filters="sRGB"><feFlood flood-color="#fff" result="bg"/><feBlend in="SourceGraphic" in2="bg"/></filter><mask id="mask-5" x="21.26" y="7.56" width="51.06" height="51.06" maskUnits="userSpaceOnUse"><g class="cls-1"><path class="cls-2" d="M46.79,58.62A25.53,25.53,0,1,1,72.32,33.09,25.56,25.56,0,0,1,46.79,58.62Z"/></g></mask><linearGradient id="linear-gradient-14" x1="27.02" y1="49.14" x2="66.34" y2="17.21" gradientUnits="userSpaceOnUse"><stop offset="0" stop-color="#fff"/><stop offset="0.43" stop-color="#fff"/><stop offset="0.5" stop-color="#fff"/><stop offset="0.55" stop-color="#fff"/><stop offset="1" stop-color="#fff"/></linearGradient><filter id="luminosity-noclip-6" x="21.26" y="7.56" width="51.06" height="51.06" filterUnits="userSpaceOnUse" color-interpolation-filters="sRGB"><feFlood flood-color="#fff" result="bg"/><feBlend in="SourceGraphic" in2="bg"/></filter><mask id="mask-6" x="21.26" y="7.56" width="51.06" height="51.06" maskUnits="userSpaceOnUse"><g class="cls-3"><path class="cls-4" d="M72.32,33.09a25.53,25.53,0,0,1-49,10.12,25.27,25.27,0,0,1-2.09-10.12,25.53,25.53,0,0,1,51.06,0Z"/></g></mask><linearGradient id="linear-gradient-15" x1="49.26" y1="7.68" x2="44.31" y2="58.59" gradientUnits="userSpaceOnUse"><stop offset="0" stop-color="#fff"/><stop offset="0.5" stop-color="#fff"/><stop offset="0.55" stop-color="#fff"/><stop offset="1" stop-color="#fff"/></linearGradient><filter id="luminosity-noclip-7" x="16.02" y="15.55" width="50.3" height="40.63" filterUnits="userSpaceOnUse" color-interpolation-filters="sRGB"><feFlood flood-color="#fff" result="bg"/><feBlend in="SourceGraphic" in2="bg"/></filter><mask id="mask-7" x="16.02" y="15.55" width="50.3" height="40.63" maskUnits="userSpaceOnUse"><g class="cls-5"><path class="cls-6" d="M66.32,52.23h0a26.18,26.18,0,0,1-4.84,3.93L61.17,55,61,54.28h0l1.06-1.66L51.17,42.71,50,44.22,42.73,40.3v-.89L23.1,23.57l-.74-2.81h0l-1.79.59-.44-.23-3.6-1.89s0-.1-.1-.2L16,18.15l6.57-1.39c.1-.16.21-.31.32-.47l0-.23.18,0,.27.07,2.48-.62.15,2.8v0L42.73,32.16l0,.92L50,37.76l1.21-.93,7.75,8.71h0L62,48.34l1.72,1.57.21.18.29.26h1.34l.11.28Z"/></g></mask><linearGradient id="linear-gradient-16" x1="62.74" y1="54.14" x2="22.3" y2="17.59" gradientUnits="userSpaceOnUse"><stop offset="0" stop-color="#fff"/><stop offset="1" stop-color="#fff"/></linearGradient><filter id="luminosity-noclip-8" x="22.07" y="9.65" width="47.89" height="40.55" filterUnits="userSpaceOnUse" color-interpolation-filters="sRGB"><feFlood flood-color="#fff" result="bg"/><feBlend in="SourceGraphic" in2="bg"/></filter><mask id="mask-8" x="22.07" y="9.65" width="47.89" height="40.55" maskUnits="userSpaceOnUse"><g class="cls-7"><path class="cls-8" d="M70,47.67c-.35.55-.72,1.1-1.12,1.62h0s0,0,0,.05c-.22.29-.43.57-.66.85l-.74-1.93,0-.08H65.93L51.17,34.68,50,35.41l-7.23-5.65V28.47L27.94,15.9l-.28-2.37-1.74.07-.82,0c.06-.06-1.55-1.72-2.93-3.15l-.1-.83,4,.43c.47.92.89,1.71,1,1.62l.53,0L30,11.48l0,2.3L42.74,24.53v1.9L50,31.65l1.21-.49L67.1,45.08l.47.43,1.37,0h.17Z"/></g></mask><linearGradient id="linear-gradient-17" x1="61.97" y1="43.96" x2="33.1" y2="15.96" xlink:href="#linear-gradient-16"/></defs><title>1st</title><g class="cls-9"><g id="Layer_2" data-name="Layer 2"><g id="Layer_1-2" data-name="Layer 1"><polygon class="cls-10" points="51.66 49.01 51.49 49.42 49.47 54.11 48.1 57.28 48.1 57.29 47.62 58.43 43.79 67.33 27.36 105.56 27.21 105.91 27.13 106.06 27.13 106.07 26.82 106.16 25.64 106.48 25.64 106.47 17.48 90.78 17.48 90.77 17.47 90.77 13.42 91.73 11.33 92.22 10.03 92.53 4.86 93.75 4.23 93.9 1.47 94.54 0 94.89 18.72 53.54 23.43 43.13 26.02 37.42 26.86 37.8 27.1 37.91 29.7 39.09 33.48 40.79 34.52 41.26 35.96 41.91 44.34 45.7 45.77 46.34 45.78 46.34 46.65 46.74 46.65 46.74 47.48 47.12 47.49 47.12 47.5 47.12 49.08 47.83 49.08 47.84 50.43 48.45 51.66 49.01"/><polygon class="cls-11" points="51.66 49 51.66 49.01 51.49 49.42 49.49 54.16 48.13 57.36 48.13 57.37 47.66 58.51 46.68 60.8 45.84 62.77 43.93 67.19 27.36 105.56 27.21 105.91 27.14 106.07 27.13 106.07 26.82 106.16 25.64 106.47 17.48 90.78 17.47 90.77 13.43 91.71 11.35 92.19 10.04 92.49 4.88 93.69 1.5 94.48 1.49 94.48 1.47 94.49 0 94.89 18.72 53.54 23.43 43.13 26.01 37.42 26.02 37.42 26.86 37.8 27.1 37.91 29.7 39.09 33.48 40.79 34.52 41.26 35.96 41.91 44.34 45.7 45.77 46.34 45.78 46.34 46.65 46.74 46.65 46.74 47.48 47.12 47.49 47.12 47.5 47.12 49.08 47.83 49.09 47.83 50.44 48.44 51.66 49"/><polygon class="cls-12" points="53.15 48.59 52.87 49.21 52.65 49.7 52.34 50.38 52.34 50.39 50.05 55.42 50.05 55.43 48.65 58.52 48.65 58.53 48.16 59.63 47.59 60.88 45.33 65.88 27.36 105.56 27.21 105.91 27.13 106.06 25.72 103.06 23.29 98.5 22.69 97.36 21.71 95.53 21.71 95.52 18.96 90.36 17.48 90.78 13.32 91.94 11.26 92.38 9.97 92.66 4.85 93.76 4.23 93.9 1.49 94.49 1.49 94.48 1.5 94.48 19.92 53.77 19.93 53.77 24.05 44.65 27.1 37.91 27.51 37.01 30.1 38.19 33.89 39.89 34.92 40.36 36.36 41.02 44.74 44.8 46.18 45.45 47.05 45.84 47.06 45.84 48.68 46.58 48.69 46.58 50.28 47.3 50.28 47.3 50.83 47.55 51.14 47.68 52.45 48.28 52.98 48.52 53.15 48.59"/><polygon class="cls-13" points="33.88 39.9 33.48 40.79 10.04 92.49 10.03 92.53 9.97 92.66 4.85 93.76 4.86 93.75 4.88 93.69 29.7 39.08 30.11 38.19 33.88 39.9"/><polygon class="cls-13" points="50.84 47.55 25.72 103.06 23.29 98.5 47.06 45.84 50.84 47.55"/><polygon class="cls-13" points="46.18 45.45 22.69 97.36 21.71 95.53 44.74 44.8 46.18 45.45"/><polygon class="cls-13" points="36.37 41.01 35.96 41.91 13.43 91.71 13.42 91.73 13.32 91.94 11.26 92.39 11.33 92.22 11.35 92.19 34.51 41.26 34.92 40.36 36.37 41.01"/><polygon class="cls-14" points="53.14 47.97 52.98 48.52 52.82 49.1 52.65 49.7 52.34 50.38 52.34 50.39 50.05 55.42 50.05 55.43 48.65 58.52 48.65 58.53 48.16 59.63 47.59 60.88 45.34 65.87 45.33 65.88 27.36 105.56 27.21 105.91 27.14 106.07 27.13 106.07 26.82 106.16 25.64 106.48 25.64 106.47 17.48 90.78 13.32 91.94 11.26 92.38 9.97 92.66 4.85 93.76 4.23 93.9 1.47 94.54 1.47 93.86 19.65 53.72 26.86 37.8 27.49 36.39 49.38 46.27 50.8 46.91 50.97 46.99 52.11 47.51 53.14 47.97"/><polygon class="cls-15" points="94.98 93.22 94.69 94.79 76.84 89.8 69.28 106.89 52.14 68.54 48.16 59.63 47.66 58.51 47.62 58.43 46.77 56.53 44.52 51.48 43.98 50.3 43.93 50.17 44.08 50.09 44.75 49.79 44.76 49.79 45.41 49.5 47.08 48.75 49.08 47.84 49.09 47.83 49.1 47.83 50.28 47.3 50.28 47.3 50.85 47.04 50.97 46.99 51.73 46.65 53.17 45.99 61.55 42.21 62.99 41.56 64.03 41.09 67.8 39.39 69.58 38.59 72.74 45.39 74.84 49.9 74.89 50.01 75.73 51.82 94.98 93.22"/><polygon class="cls-16" points="94.98 93.22 91.39 92.22 91.39 92.22 86.19 90.77 84.75 90.37 82.78 89.82 82.77 89.82 77.13 88.24 74.5 93.83 73.62 95.71 73.08 96.85 71.56 100.08 70.76 101.77 70.75 101.79 69.33 104.8 55.53 73.91 52.69 67.55 49.72 60.91 48.65 58.53 48.65 58.53 48.13 57.37 48.13 57.36 48.1 57.29 48.1 57.28 47.27 55.43 45.01 50.38 45.01 50.37 44.75 49.79 44.49 49.2 44.49 49.19 44.22 48.6 44.23 48.6 44.89 48.29 44.9 48.29 46.22 47.7 46.54 47.55 47.49 47.12 47.5 47.12 48.68 46.58 48.69 46.58 49.38 46.27 50.31 45.84 51.19 45.45 52.63 44.8 61.01 41.02 62.45 40.37 62.45 40.36 63.49 39.89 67.26 38.2 69.87 37.02 69.88 37.02 73.44 44.99 73.67 45.52 94.98 93.22"/><polygon class="cls-13" points="91.39 92.22 91.39 92.22 86.19 90.77 69.5 53.35 64.03 41.09 63.49 39.89 67.26 38.19 67.26 38.2 67.8 39.39 73.64 52.48 91.39 92.22"/><polygon class="cls-13" points="73.08 96.85 71.56 100.08 70.76 101.77 54.23 64.75 50.05 55.42 49.49 54.16 49.47 54.11 48.68 52.33 47.08 48.75 46.54 47.55 47.49 47.12 47.5 47.12 48.68 46.58 48.69 46.58 49.38 46.27 50.31 45.84 50.8 46.91 50.85 47.04 51.14 47.68 52.34 50.38 59.66 66.77 73.08 96.85"/><polygon class="cls-13" points="74.5 93.83 73.62 95.71 60.71 66.77 52.87 49.21 52.82 49.1 52.45 48.28 52.11 47.51 51.73 46.65 51.19 45.45 52.63 44.8 53.17 45.99 61.62 64.94 74.5 93.83"/><polygon class="cls-13" points="84.76 90.36 82.78 89.82 69.63 60.34 61.55 42.21 61.01 41.02 62.45 40.36 62.45 40.37 62.99 41.56 69.03 55.08 84.76 90.36"/><polygon class="cls-17" points="94.98 93.22 91.39 92.22 91.39 92.22 86.19 90.77 84.75 90.37 82.78 89.82 82.77 89.82 78.62 88.66 77.13 88.24 74.5 93.83 73.62 95.71 73.08 96.85 71.56 100.08 70.76 101.77 70.75 101.79 69.33 104.8 69.33 104.81 55.53 73.91 52.69 67.55 49.72 60.91 48.65 58.52 48.13 57.37 48.13 57.36 48.1 57.29 48.1 57.28 47.28 55.42 45.01 50.37 44.76 49.79 44.49 49.19 44.23 48.6 44.89 48.29 44.9 48.29 46.22 47.7 46.54 47.55 47.49 47.12 47.5 47.12 48.68 46.58 48.69 46.58 49.38 46.27 50.31 45.84 51.19 45.45 52.63 44.8 61.01 41.02 62.45 40.37 62.45 40.36 63.49 39.89 67.26 38.2 67.26 38.19 69.87 37.02 73.44 45 94.98 93.22"/><polygon class="cls-18" points="75.74 51.81 75.73 51.82 74.58 52.28 73.64 52.48 69.5 53.35 68.82 53.49 69.03 55.08 69.69 60.32 69.63 60.34 68.54 60.77 62.53 60.14 61.62 64.94 61.31 66.53 60.71 66.77 60.15 66.99 59.66 66.77 54.41 64.42 54.23 64.75 52.69 67.55 52.14 68.54 48.16 59.63 47.59 60.88 45.34 65.87 45.33 65.88 43.93 67.19 43.79 67.33 40.99 69.97 40.62 70.11 39.83 70.43 37.66 66.66 37.06 65.61 36.33 64.34 35.74 64.62 31.04 66.83 29.87 67.29 28.41 60.35 27.56 60.46 25.68 60.7 24.39 60.86 24.38 60.86 21.51 61.23 21.38 61.24 21.9 56.24 21.9 56.23 22.09 54.45 22.12 54.19 19.93 53.77 19.92 53.77 19.65 53.72 18.72 53.54 23.43 43.13 26.01 37.42 26.02 37.42 26.86 37.8 27.49 36.39 49.38 46.27 50.31 45.84 51.19 45.45 52.63 44.8 61.01 41.02 62.45 40.36 63.49 39.89 67.26 38.19 69.87 37.02 69.88 37.02 73.44 44.99 73.44 45 72.89 45.31 72.74 45.39 72.72 45.4 72.8 45.58 74.84 49.9 74.89 50.01 75.74 51.81"/><polygon class="cls-19" points="71.56 41.87 75.74 47.84 74.58 48.29 67.64 49.76 69.69 56.34 68.53 56.8 61.48 56.04 61.31 62.55 60.15 63.01 53.68 60.11 51.42 65.88 50.26 66.34 45 61.58 40.99 65.98 39.83 66.44 36.29 60.29 31.03 62.85 29.87 63.31 28.41 56.37 21.51 57.25 21.37 57.26 22.09 50.47 22.12 50.21 15.15 48.89 15.24 48.71 18.05 42.41 17.94 42.35 11.84 38.99 16.59 33.73 16.43 33.56 11.73 28.56 11.89 28.46 17.88 25.02 17.76 24.77 14.86 18.61 16.02 18.15 21.8 17.14 20.9 10.11 22.07 9.65 27.96 10.86 29.29 3.89 30.45 3.43 35.76 6.78 39.17 0.56 40.34 0.11 44.44 5.32 49.61 0.46 50.77 0 53.15 6.61 59.5 3.82 61.03 10.53 68.07 9.64 67.32 16.69 74.28 18.02 71.39 24.5 77.6 27.91 72.85 33.17 77.71 38.34 71.56 41.87"/><path class="cls-20" d="M28.05,49.36l-4.7,6.81-1.84,1.08h-.14l.72-6.79,2.14-1.2-7.14-1.35-1.85.79,2.81-6.3-.11-.06,2-.63-6-3.42-2.1.69,4.76-5.26-.16-.17L18.49,33l.43-1.86L13.75,28l-1.86.5,6-3.44-.12-.26,1.67-.5s3.44,6.08,3.26,6.31S28.05,49.36,28.05,49.36Z"/><polygon class="cls-21" points="68.8 49.34 69.69 56.34 62.64 55.58 61.31 62.55 54.84 59.65 51.42 65.88 46.16 61.12 40.99 65.98 37.45 59.83 31.03 62.85 29.57 55.91 22.53 56.8 23.29 49.75 16.32 48.42 19.17 42.05 19.21 41.95 19.11 41.89 12.99 38.53 17.62 33.41 17.75 33.27 17.62 33.13 12.89 28.1 18.81 24.69 19.04 24.56 18.92 24.32 16.52 19.23 16.43 19.03 16.02 18.15 22.59 16.76 22.96 16.68 22.91 16.29 22.87 16.06 22.17 10.48 22.07 9.65 26.11 10.08 28.82 10.36 29.12 10.4 29.17 10.11 30.45 3.43 36.92 6.33 40.34 0.11 45.6 4.86 50.77 0 54.31 6.15 60.72 3.13 62.19 10.07 69.23 9.18 68.48 16.23 75.44 17.55 72.58 23.96 72.55 24.03 72.62 24.08 78.77 27.45 74.13 32.57 74.01 32.71 74.14 32.85 78.87 37.88 72.89 41.33 72.71 41.42 72.8 41.6 75.74 47.84 68.83 49.3 68.83 49.3 68.8 49.3 68.8 49.34"/><path class="cls-22" d="M71.61,33.17a28.7,28.7,0,0,1-2.67,12.3c-.14.3-.29.59-.44.88s-.36.68-.55,1l0,.08c-.16.28-.33.56-.5.83s-.34.52-.52.78c-.37.55-.78,1.09-1.2,1.6-.16.2-.32.4-.49.59a23.69,23.69,0,0,1-4,3.73c-.19.15-.38.28-.58.42A26.29,26.29,0,0,1,45.49,60a29.28,29.28,0,0,1-7.88-1.08l-.14,0a27.26,27.26,0,0,1-18.3-16.77,1,1,0,0,1-.06-.16,26.26,26.26,0,0,1-1.49-8.48v-.34a29.57,29.57,0,0,1,1.19-8.38c0-.12.07-.25.11-.37a26.16,26.16,0,0,1,1-2.77c.06-.14.12-.29.19-.43l.15-.33c.2-.45.42-.88.65-1.32a23.39,23.39,0,0,1,1.66-2.71c.1-.16.21-.31.32-.47v0c0-.05.09-.1.13-.16q.66-.92,1.41-1.77l.63-.7h0l.29-.31c.31-.32.64-.64,1-1s.49-.46.75-.67c.53-.46,1.09-.9,1.67-1.32,0,0,0,0,0,0l.35-.25A25.86,25.86,0,0,1,39.23,5.9v0a36.53,36.53,0,0,1,9.15-.06,12.73,12.73,0,0,1,4.16,1.27,1.34,1.34,0,0,0,1.18.07,27.53,27.53,0,0,1,11.63,8.36.13.13,0,0,0,.05.06l.33.41,0,0h0a28.1,28.1,0,0,1,3.93,6.87h0A28,28,0,0,1,71.61,33.17Z"/><path class="cls-23" d="M74.14,32.85a.87.87,0,0,0,0-.28,26.81,26.81,0,0,0-1.51-8.49.56.56,0,0,0,0-.12A27.4,27.4,0,0,0,52.66,6.37a35.54,35.54,0,0,0-4.28-.56,24.63,24.63,0,0,0-8.18.68v0a27.23,27.23,0,0,0-10.2,5,28.36,28.36,0,0,0-2.34,2,25.15,25.15,0,0,0-1.86,2,27.33,27.33,0,0,0-3.44,5.21h0A27.37,27.37,0,0,0,37.47,58.82a.39.39,0,0,0,.14,0,27.38,27.38,0,0,0,23.85-2.69h0a26.18,26.18,0,0,0,4.84-3.93h0a22.08,22.08,0,0,0,1.82-2c.23-.28.44-.57.66-.86l0,0c.39-.52.76-1.07,1.11-1.62A27.19,27.19,0,0,0,72.8,41.6c0-.09,0-.19.08-.27a27.35,27.35,0,0,0,1.27-8.23A2.09,2.09,0,0,0,74.14,32.85Z"/><path class="cls-24" d="M46.79,58.62A25.53,25.53,0,1,1,72.32,33.09,25.56,25.56,0,0,1,46.79,58.62Z"/><g class="cls-25"><path class="cls-26" d="M46.79,58.62A25.53,25.53,0,1,1,72.32,33.09,25.56,25.56,0,0,1,46.79,58.62Z"/></g><g class="cls-27"><path class="cls-28" d="M72.32,33.09a25.53,25.53,0,0,1-49,10.12,25.27,25.27,0,0,1-2.09-10.12,25.53,25.53,0,0,1,51.06,0Z"/></g><path class="cls-29" d="M41,47.55V43.9h1.69V21.69h-2v-4H51.17V43.9h1.7v3.65Z"/><g class="cls-30"><path class="cls-31" d="M51.17,43.9V17.74H40.71v1.38H50V45.3h1.7v2.24h1.21V43.9Z"/></g><polygon class="cls-32" points="49.96 19.13 51.17 17.8 51.17 43.78 49.96 45.3 49.96 19.13"/><polygon class="cls-32" points="52.87 43.9 52.87 47.54 51.66 47.54 51.66 45.46 52.87 43.9"/><path class="cls-33" d="M72.32,33.09A25.57,25.57,0,0,1,47.86,58.6c13-1.12,22.76-12.1,22.76-25.43,0-14.08-10.9-25.53-25-25.53-.39,0-.77,0-1.16,0,.76-.07,1.53-.11,2.3-.11A25.56,25.56,0,0,1,72.32,33.09Z"/><path class="cls-34" d="M67.57,44.16a5.24,5.24,0,0,1-1.72,2.29,2.53,2.53,0,0,1-1.34.28h0a1,1,0,0,1-.89-.61C63.37,45.45,64,44.5,65,44a1.83,1.83,0,0,1,.74-.18A5.11,5.11,0,0,1,67.57,44.16Z"/><path class="cls-34" d="M62.29,45.67a.74.74,0,0,1-.65.13,2.52,2.52,0,0,1-1.41-1.21,5.75,5.75,0,0,1-.44-2.87.55.55,0,0,1,0-.12,4.29,4.29,0,0,1,2.28,1.46C62.71,44.07,62.8,45.25,62.29,45.67Z"/><path class="cls-34" d="M64.89,48.89s-1,1.63-2,1.91a2.38,2.38,0,0,1-.9.09A1.25,1.25,0,0,1,60.71,50c-.15-.7.59-1.51,1.64-1.8l.24,0A4.54,4.54,0,0,1,64.89,48.89Z"/><path class="cls-34" d="M59,49.52a.6.6,0,0,1-.35,0,2.45,2.45,0,0,1-1.2-1.9,5.44,5.44,0,0,1,.46-2.7l.11-.26A5.14,5.14,0,0,1,59.68,47C59.93,48.23,59.63,49.35,59,49.52Z"/><path class="cls-34" d="M69.55,38a5.56,5.56,0,0,1-1.33,2.61,2.31,2.31,0,0,1-1.61.55.84.84,0,0,1-.64-.41c-.34-.61.1-1.67,1-2.35a2.76,2.76,0,0,1,1.55-.46h0A5.56,5.56,0,0,1,69.55,38Z"/><path class="cls-34" d="M64.9,40.7a.9.9,0,0,1-1,.37,2.65,2.65,0,0,1-1.27-.61,5.76,5.76,0,0,1-1.25-2.68l.33,0h.07A3.43,3.43,0,0,1,64,38.3C64.86,39,65.27,40.11,64.9,40.7Z"/><path class="cls-34" d="M67.35,27.87c-.39,1.1-1.14,1.78-1.71,1.61h0l-.08,0c-.59-.29-.71-1.46-.29-2.61A4.23,4.23,0,0,1,66.89,25a3.87,3.87,0,0,1,.34-.2A6.17,6.17,0,0,1,67.35,27.87Z"/><path class="cls-34" d="M64.74,30a1.15,1.15,0,0,1-1.28.6,2.63,2.63,0,0,1-1-.27A5.27,5.27,0,0,1,60.79,28a5.33,5.33,0,0,1,1.48-.32,2.23,2.23,0,0,1,1.12.17C64.38,28.35,65,29.29,64.74,30Z"/><path class="cls-34" d="M68.6,34.34c-.55.78-1.28,1.21-1.8,1.08a.62.62,0,0,1-.31-.16c-.49-.46-.33-1.63.35-2.59a3.62,3.62,0,0,1,2-1.19l.39-.1A6.07,6.07,0,0,1,68.6,34.34Z"/><path class="cls-34" d="M65.07,35.22a1,1,0,0,1-1.13.49,2.75,2.75,0,0,1-1.12-.43,5.4,5.4,0,0,1-1.5-2.48,5.3,5.3,0,0,1,1-.15h0a2.71,2.71,0,0,1,1.56.31C64.86,33.57,65.38,34.58,65.07,35.22Z"/><path class="cls-34" d="M65.05,21.91c-.2,1.07-.8,1.82-1.34,1.68l-.05,0c-.5-.19-.74-1.14-.54-2.17a4,4,0,0,1,1.14-1.82c.16-.16.28-.26.28-.26A5.14,5.14,0,0,1,65.05,21.91Z"/><path class="cls-34" d="M63.34,25c-.11.54-.72.84-1.46.77a2,2,0,0,1-.42-.07c-.92-.24-1.78-1.66-1.78-1.66a4.45,4.45,0,0,1,1.66-.63,1.67,1.67,0,0,1,.55,0C62.82,23.69,63.46,24.39,63.34,25Z"/><path class="cls-34" d="M62.12,17.75c0,.95-.48,1.69-.95,1.65a.33.33,0,0,1-.17,0,1.86,1.86,0,0,1-.6-1.74,3.67,3.67,0,0,1,.76-1.73c.13-.18.22-.28.22-.28A4.45,4.45,0,0,1,62.12,17.75Z"/><path class="cls-34" d="M61.21,20.91c0,.55-.72.95-1.53.89h0A3.49,3.49,0,0,1,58,20.66a3.83,3.83,0,0,1,1.56-.85,1.22,1.22,0,0,1,.27,0C60.61,19.86,61.24,20.36,61.21,20.91Z"/><path class="cls-34" d="M59.6,18a.77.77,0,0,1-.87.34,2,2,0,0,1-.84-.36,4.12,4.12,0,0,1-1.08-1.93,5.13,5.13,0,0,1,.61-.07,2.17,2.17,0,0,1,1.36.28C59.48,16.78,59.85,17.56,59.6,18Z"/><path class="cls-29" d="M67.17,44.16s-.72,1.8-1.71,2.29a2.7,2.7,0,0,1-.95.28h0a1,1,0,0,1-.89-.61C63.37,45.45,64,44.5,65,44a1.83,1.83,0,0,1,.74-.18A5.32,5.32,0,0,1,67.17,44.16Z"/><path class="cls-29" d="M61.89,45.67a.6.6,0,0,1-.25.13,2.52,2.52,0,0,1-1.41-1.21,5.75,5.75,0,0,1-.44-2.87,3.83,3.83,0,0,1,1.9,1.34C62.31,44.07,62.41,45.25,61.89,45.67Z"/><path class="cls-29" d="M64.49,48.89s-1,1.63-2,1.91a2.38,2.38,0,0,1-.51.09A1.25,1.25,0,0,1,60.71,50c-.15-.7.59-1.51,1.64-1.8l.24,0A4.93,4.93,0,0,1,64.49,48.89Z"/><path class="cls-29" d="M58.67,49.5a2.45,2.45,0,0,1-1.2-1.9,5.44,5.44,0,0,1,.46-2.7A4.55,4.55,0,0,1,59.29,47C59.53,48.2,59.25,49.3,58.67,49.5Z"/><path class="cls-29" d="M69.17,38a5.61,5.61,0,0,1-1.34,2.61,2.68,2.68,0,0,1-1.22.55.84.84,0,0,1-.64-.41c-.34-.61.1-1.67,1-2.35a2.76,2.76,0,0,1,1.55-.46h0A4.61,4.61,0,0,1,69.17,38Z"/><path class="cls-29" d="M64.51,40.7a.8.8,0,0,1-.58.37,2.65,2.65,0,0,1-1.27-.61,5.76,5.76,0,0,1-1.25-2.68l.33,0h.07a3.05,3.05,0,0,1,1.78.54C64.46,39,64.88,40.11,64.51,40.7Z"/><path class="cls-29" d="M67,27.87a2.45,2.45,0,0,1-1.32,1.61h0l-.08,0c-.59-.29-.71-1.46-.29-2.61A4.23,4.23,0,0,1,66.89,25,5.6,5.6,0,0,1,67,27.87Z"/><path class="cls-29" d="M64.35,30a1,1,0,0,1-.89.6,2.63,2.63,0,0,1-1-.27A5.27,5.27,0,0,1,60.79,28a5.33,5.33,0,0,1,1.48-.32,1.78,1.78,0,0,1,.73.17C64,28.35,64.59,29.29,64.35,30Z"/><path class="cls-29" d="M68.21,34.34a2.52,2.52,0,0,1-1.41,1.08.62.62,0,0,1-.31-.16c-.49-.46-.33-1.63.35-2.59a3.62,3.62,0,0,1,2-1.19A5.73,5.73,0,0,1,68.21,34.34Z"/><path class="cls-29" d="M64.69,35.22a.92.92,0,0,1-.75.49,2.75,2.75,0,0,1-1.12-.43,5.4,5.4,0,0,1-1.5-2.48,5.3,5.3,0,0,1,1-.15h0a2.46,2.46,0,0,1,1.17.31C64.47,33.57,65,34.58,64.69,35.22Z"/><path class="cls-29" d="M64.67,21.91a2.22,2.22,0,0,1-1,1.66c-.5-.19-.74-1.14-.54-2.17a4,4,0,0,1,1.14-1.82A4.82,4.82,0,0,1,64.67,21.91Z"/><path class="cls-29" d="M63,25a1.11,1.11,0,0,1-1.07.77,2,2,0,0,1-.42-.07c-.92-.24-1.78-1.66-1.78-1.66a4.45,4.45,0,0,1,1.66-.63l.17,0C62.43,23.69,63.07,24.39,63,25Z"/><path class="cls-29" d="M61.73,17.75A1.89,1.89,0,0,1,61,19.36a1.86,1.86,0,0,1-.6-1.74,3.67,3.67,0,0,1,.76-1.73A3.82,3.82,0,0,1,61.73,17.75Z"/><path class="cls-29" d="M60.82,20.91c0,.47-.53.83-1.18.89A3.49,3.49,0,0,1,58,20.66a3.83,3.83,0,0,1,1.56-.85C60.27,19.91,60.85,20.38,60.82,20.91Z"/><path class="cls-29" d="M59.22,18a.68.68,0,0,1-.49.34,2,2,0,0,1-.84-.36,4.12,4.12,0,0,1-1.08-1.93,5.13,5.13,0,0,1,.61-.07,1.92,1.92,0,0,1,1,.28C59.09,16.78,59.46,17.56,59.22,18Z"/><path class="cls-34" d="M29.83,45.78c-.24.7-1.25.86-2.24.34l-.11-.07a5.8,5.8,0,0,1-1.6-2.33,4.12,4.12,0,0,1,2.43-.23l.18.08C29.48,44.08,30.08,45.07,29.83,45.78Z"/><path class="cls-34" d="M33.22,44.17c-.62,1.07-1.54,1.58-2.06,1.13l0,0c-.47-.49-.37-1.67.24-2.71a3.84,3.84,0,0,1,1.93-1.41l.36-.12A6.63,6.63,0,0,1,33.22,44.17Z"/><path class="cls-34" d="M32.75,49.87c-.15.75-1.11,1.11-2.16.82a1.86,1.86,0,0,1-.47-.23,6.17,6.17,0,0,1-1.56-1.78A3.93,3.93,0,0,1,31.1,48l.32.11C32.3,48.45,32.88,49.2,32.75,49.87Z"/><path class="cls-34" d="M36,47.33c-.25,1.28-.94,2.18-1.55,2a.52.52,0,0,1-.28-.17,2.94,2.94,0,0,1-.39-2.46,5,5,0,0,1,1.42-2.26l.22-.22A6.61,6.61,0,0,1,36,47.33Z"/><path class="cls-34" d="M27.47,40.14c-.29.56-1.09.58-1.89.1h0a2.26,2.26,0,0,1-.34-.23,6,6,0,0,1-1.34-2.74,4.62,4.62,0,0,1,2.08.13,1.73,1.73,0,0,1,.51.29C27.37,38.4,27.82,39.5,27.47,40.14Z"/><path class="cls-34" d="M32,37a6.15,6.15,0,0,1-1.25,2.8c-.77.68-1.64.85-2.09.45a.93.93,0,0,1-.16-.18c-.36-.63.05-1.75.92-2.52A3.28,3.28,0,0,1,31.62,37,4,4,0,0,1,32,37Z"/><path class="cls-34" d="M27.9,28.29a.78.78,0,0,1-.83-.15,3.21,3.21,0,0,1-1-1.5,6.62,6.62,0,0,1,.11-3.14l0,0a4.87,4.87,0,0,1,2,2.09C28.6,26.76,28.47,28,27.9,28.29Z"/><path class="cls-34" d="M32.67,26.78s-.73,1.89-1.72,2.4a1.87,1.87,0,0,1-1.95.06.81.81,0,0,1-.29-.41c-.24-.7.36-1.69,1.35-2.21a3.18,3.18,0,0,1,2.2,0Z"/><path class="cls-34" d="M27,34.38a.93.93,0,0,1-1.21-.05,2.89,2.89,0,0,1-.9-.91,6.53,6.53,0,0,1-.61-3.1,4.92,4.92,0,0,1,1.08.36,3,3,0,0,1,1.28,1C27.29,32.68,27.44,33.9,27,34.38Z"/><path class="cls-34" d="M32.13,31.81a5.78,5.78,0,0,1-1.5,2.6,1.79,1.79,0,0,1-2,.23.64.64,0,0,1-.23-.3c-.31-.66.2-1.73,1.15-2.36a3.18,3.18,0,0,1,2.19-.26A2.75,2.75,0,0,1,32.13,31.81Z"/><path class="cls-34" d="M29.74,22.15a.64.64,0,0,1-.59-.18,2.85,2.85,0,0,1-.76-1.58,5.53,5.53,0,0,1,.46-2.59l.06-.13a4.72,4.72,0,0,1,1.42,2.18C30.54,21,30.27,22,29.74,22.15Z"/><path class="cls-34" d="M33.78,22.63s-.87,1.48-1.79,1.74a1.85,1.85,0,0,1-1.53-.18.93.93,0,0,1-.35-.55C30,23,30.63,22.25,31.56,22a2.45,2.45,0,0,1,1.52.24A5.25,5.25,0,0,1,33.78,22.63Z"/><path class="cls-34" d="M32.29,17.76a.55.55,0,0,1-.43-.19A2.43,2.43,0,0,1,31.33,16,4.44,4.44,0,0,1,32,14l.11-.18a4.42,4.42,0,0,1,1,2.1C33.11,16.88,32.76,17.72,32.29,17.76Z"/><path class="cls-34" d="M35.5,19.08s-.91,1.13-1.72,1.19A1.68,1.68,0,0,1,32.64,20a.88.88,0,0,1-.4-.65c0-.59.61-1.11,1.42-1.17a1.5,1.5,0,0,1,.65.12A4.07,4.07,0,0,1,35.5,19.08Z"/><path class="cls-34" d="M36.66,14.27a4.44,4.44,0,0,1-1.1,2c-.6.44-1.27.51-1.59.18a1.11,1.11,0,0,1-.12-.16c-.24-.5.13-1.32.83-1.83a2.32,2.32,0,0,1,1.56-.28A3.11,3.11,0,0,1,36.66,14.27Z"/><path class="cls-29" d="M29.45,45.59c-.22.64-1.07.82-2,.46a5.8,5.8,0,0,1-1.6-2.33,4.12,4.12,0,0,1,2.43-.23A2,2,0,0,1,29.45,45.59Z"/><path class="cls-29" d="M32.84,44c-.5.86-1.2,1.36-1.71,1.29-.47-.49-.37-1.67.24-2.71a3.84,3.84,0,0,1,1.93-1.41A6.1,6.1,0,0,1,32.84,44Z"/><path class="cls-29" d="M32.36,49.68c-.14.75-1.1,1.11-2.15.82l-.09,0a6.17,6.17,0,0,1-1.56-1.78A3.93,3.93,0,0,1,31.1,48l.32.11A1.66,1.66,0,0,1,32.36,49.68Z"/><path class="cls-29" d="M35.6,47.14c-.22,1.21-.85,2.08-1.44,2a2.94,2.94,0,0,1-.39-2.46,5,5,0,0,1,1.42-2.26A5.7,5.7,0,0,1,35.6,47.14Z"/><path class="cls-29" d="M27.09,40c-.25.47-.85.56-1.51.29h0a2.26,2.26,0,0,1-.34-.23,6,6,0,0,1-1.34-2.74,4.62,4.62,0,0,1,2.08.13l.13.09C27,38.21,27.44,39.31,27.09,40Z"/><path class="cls-29" d="M31.62,37a5.63,5.63,0,0,1-1.21,2.63,2.11,2.11,0,0,1-1.71.64.93.93,0,0,1-.16-.18c-.36-.63.05-1.75.92-2.52A3.28,3.28,0,0,1,31.62,37Z"/><path class="cls-29" d="M27.51,28.1a.61.61,0,0,1-.44,0,3.21,3.21,0,0,1-1-1.5,6.62,6.62,0,0,1,.11-3.14,4.38,4.38,0,0,1,1.6,1.86C28.22,26.57,28.09,27.79,27.51,28.1Z"/><path class="cls-29" d="M32.26,26.65A5.2,5.2,0,0,1,30.56,29a2.17,2.17,0,0,1-1.56.25.81.81,0,0,1-.29-.41c-.24-.7.36-1.69,1.35-2.21A3.18,3.18,0,0,1,32.26,26.65Z"/><path class="cls-29" d="M26.57,34.19a.75.75,0,0,1-.82.14,2.89,2.89,0,0,1-.9-.91,6.53,6.53,0,0,1-.61-3.1,4.92,4.92,0,0,1,1.08.36,2.63,2.63,0,0,1,.9.79C26.9,32.49,27.06,33.71,26.57,34.19Z"/><path class="cls-29" d="M31.72,31.72a5.46,5.46,0,0,1-1.47,2.5,2.17,2.17,0,0,1-1.64.42.64.64,0,0,1-.23-.3c-.31-.66.2-1.73,1.15-2.36A3.18,3.18,0,0,1,31.72,31.72Z"/><path class="cls-29" d="M29.36,22a.5.5,0,0,1-.21,0,2.85,2.85,0,0,1-.76-1.58,5.53,5.53,0,0,1,.46-2.59A4.07,4.07,0,0,1,30,19.66C30.16,20.78,29.89,21.81,29.36,22Z"/><path class="cls-29" d="M33.4,22.44s-.87,1.49-1.79,1.74a2.14,2.14,0,0,1-1.15,0,.93.93,0,0,1-.35-.55C30,23,30.63,22.25,31.56,22a2.45,2.45,0,0,1,1.52.24Z"/><path class="cls-29" d="M31.9,17.57h0A2.43,2.43,0,0,1,31.33,16,4.44,4.44,0,0,1,32,14a3.75,3.75,0,0,1,.7,1.73C32.72,16.69,32.38,17.53,31.9,17.57Z"/><path class="cls-29" d="M35.12,18.89S34.21,20,33.4,20.08a1.87,1.87,0,0,1-.76-.09.88.88,0,0,1-.4-.65c0-.59.61-1.11,1.42-1.17a1.5,1.5,0,0,1,.65.12A4.44,4.44,0,0,1,35.12,18.89Z"/><path class="cls-29" d="M36.24,14.21a4.08,4.08,0,0,1-1.06,1.9,1.71,1.71,0,0,1-1.21.37,1.11,1.11,0,0,1-.12-.16c-.24-.5.13-1.32.83-1.83A2.32,2.32,0,0,1,36.24,14.21Z"/><path class="cls-35" d="M72.32,33.09A25.56,25.56,0,0,1,46.79,58.62c-.7,0-1.39,0-2.07-.08A25.61,25.61,0,0,1,23.35,43.21c37.88,8.85,35.68-25.93,35-32.09a3.34,3.34,0,0,0,.16-.7A24.81,24.81,0,0,1,69.23,20.93,25.36,25.36,0,0,1,72.32,33.09Z"/><path class="cls-32" d="M72.32,33.09A25.56,25.56,0,0,1,46.79,58.62c-.7,0-1.39,0-2.07-.08,17.32-6,22.56-24.45,24.15-34.87L70,22.55A23.82,23.82,0,0,1,72.32,33.09Z"/><g class="cls-36"><path class="cls-37" d="M66.32,52.23h0a26.18,26.18,0,0,1-4.84,3.93L61.17,55,61,54.28h0l1.06-1.66L51.17,42.71,50,44.22,42.73,40.3v-.89L23.1,23.57l-.74-2.81h0l-1.79.59-.44-.23-3.6-1.89s0-.1-.1-.2L16,18.15l6.57-1.39c.1-.16.21-.31.32-.47l0-.23.18,0,.27.07,2.48-.62.15,2.8v0L42.73,32.16l0,.92L50,37.76l1.21-.93,7.75,8.71h0L62,48.34l1.72,1.57.21.18.29.26h1.34l.11.28Z"/></g><g class="cls-38"><path class="cls-39" d="M70,47.67c-.35.55-.72,1.1-1.12,1.62h0s0,0,0,.05c-.22.29-.43.57-.66.85l-.74-1.93,0-.08H65.93L51.17,34.68,50,35.41l-7.23-5.65V28.47L27.94,15.9l-.28-2.37-1.74.07-.82,0c.06-.06-1.55-1.72-2.93-3.15l-.1-.83,4,.43c.47.92.89,1.71,1,1.62l.53,0L30,11.48l0,2.3L42.74,24.53v1.9L50,31.65l1.21-.49L67.1,45.08l.47.43,1.37,0h.17Z"/></g></g></g></g></svg>