<svg xmlns="http://www.w3.org/2000/svg" xmlns:xlink="http://www.w3.org/1999/xlink" viewBox="0 0 94.98 106.4"><defs><style>.cls-1{mask:url(#mask);filter:url(#luminosity-noclip-3);}.cls-11,.cls-2,.cls-24,.cls-26,.cls-4,.cls-9{mix-blend-mode:multiply;}.cls-2{fill:url(#linear-gradient);}.cls-3{mask:url(#mask-2);filter:url(#luminosity-noclip-4);}.cls-4{fill:url(#linear-gradient-2);}.cls-5{isolation:isolate;}.cls-6{fill:#072440;}.cls-7{fill:url(#linear-gradient-3);}.cls-8{fill:#fff;}.cls-11,.cls-9{opacity:0.5;}.cls-9{fill:url(#linear-gradient-4);}.cls-10{fill:url(#linear-gradient-5);}.cls-11{fill:url(#linear-gradient-6);}.cls-12,.cls-21,.cls-28,.cls-29{opacity:0.2;}.cls-13{fill:url(#linear-gradient-7);}.cls-14,.cls-30{fill:#f3f3f3;mix-blend-mode:soft-light;}.cls-15{fill:url(#radial-gradient);}.cls-16{fill:url(#linear-gradient-8);}.cls-17{fill:url(#linear-gradient-9);}.cls-18{fill:url(#radial-gradient-2);}.cls-19{fill:#8b8b8b;}.cls-20{fill:#424242;}.cls-21{fill:#7e7e7e;}.cls-21,.cls-27,.cls-28,.cls-29{mix-blend-mode:color-burn;}.cls-22{fill:#6c6c6c;}.cls-23{mask:url(#mask-3);}.cls-24,.cls-26{opacity:0.3;}.cls-24{fill:url(#linear-gradient-10);}.cls-25{mask:url(#mask-4);}.cls-26{fill:url(#linear-gradient-11);}.cls-27,.cls-29{fill:#797979;}.cls-27{opacity:0.6;}.cls-28{fill:#a4a4a4;}.cls-30{opacity:0.4;}.cls-31{filter:url(#luminosity-noclip-2);}.cls-32{filter:url(#luminosity-noclip);}</style><filter id="luminosity-noclip" x="21.61" y="-8310.2" width="51.06" height="32766" filterUnits="userSpaceOnUse" color-interpolation-filters="sRGB"><feFlood flood-color="#fff" result="bg"/><feBlend in="SourceGraphic" in2="bg"/></filter><mask id="mask" x="21.61" y="-8310.2" width="51.06" height="32766" maskUnits="userSpaceOnUse"><g class="cls-32"/></mask><linearGradient id="linear-gradient" x1="27.37" y1="49.14" x2="66.7" y2="17.21" gradientUnits="userSpaceOnUse"><stop offset="0"/><stop offset="0.16" stop-color="#020202"/><stop offset="0.23" stop-color="#090909"/><stop offset="0.28" stop-color="#161616"/><stop offset="0.33" stop-color="#272727"/><stop offset="0.36" stop-color="#3f3f3f"/><stop offset="0.4" stop-color="#5b5b5b"/><stop offset="0.43" stop-color="#7d7d7d"/><stop offset="0.46" stop-color="#a5a5a5"/><stop offset="0.48" stop-color="#d0d0d0"/><stop offset="0.5" stop-color="#fff"/><stop offset="0.53" stop-color="#dcdcdc"/><stop offset="0.58" stop-color="#a9a9a9"/><stop offset="0.63" stop-color="#7c7c7c"/><stop offset="0.69" stop-color="#565656"/><stop offset="0.74" stop-color="#363636"/><stop offset="0.8" stop-color="#1e1e1e"/><stop offset="0.86" stop-color="#0d0d0d"/><stop offset="0.92" stop-color="#030303"/><stop offset="1"/></linearGradient><filter id="luminosity-noclip-2" x="21.61" y="-8310.2" width="51.06" height="32766" filterUnits="userSpaceOnUse" color-interpolation-filters="sRGB"><feFlood flood-color="#fff" result="bg"/><feBlend in="SourceGraphic" in2="bg"/></filter><mask id="mask-2" x="21.61" y="-8310.2" width="51.06" height="32766" maskUnits="userSpaceOnUse"><g class="cls-31"/></mask><linearGradient id="linear-gradient-2" x1="49.61" y1="7.68" x2="44.66" y2="58.59" gradientUnits="userSpaceOnUse"><stop offset="0"/><stop offset="0.5" stop-color="#fff"/><stop offset="0.53" stop-color="#dcdcdc"/><stop offset="0.58" stop-color="#a9a9a9"/><stop offset="0.63" stop-color="#7c7c7c"/><stop offset="0.69" stop-color="#565656"/><stop offset="0.74" stop-color="#363636"/><stop offset="0.8" stop-color="#1e1e1e"/><stop offset="0.86" stop-color="#0d0d0d"/><stop offset="0.92" stop-color="#030303"/><stop offset="1"/></linearGradient><linearGradient id="linear-gradient-3" x1="44.04" y1="47.98" x2="10.85" y2="93.76" gradientUnits="userSpaceOnUse"><stop offset="0.16" stop-color="#13589c"/><stop offset="0.53" stop-color="#13579a"/><stop offset="0.68" stop-color="#125393"/><stop offset="0.8" stop-color="#104c86"/><stop offset="0.9" stop-color="#0e4275"/><stop offset="0.98" stop-color="#0b355e"/><stop offset="1" stop-color="#0a3157"/></linearGradient><linearGradient id="linear-gradient-4" x1="27.3" y1="47.95" x2="27.3" y2="103.94" gradientUnits="userSpaceOnUse"><stop offset="0" stop-color="#858585"/><stop offset="0.01" stop-color="#888"/><stop offset="0.08" stop-color="#acacac"/><stop offset="0.15" stop-color="#cacaca"/><stop offset="0.23" stop-color="#e2e2e2"/><stop offset="0.31" stop-color="#f2f2f2"/><stop offset="0.4" stop-color="#fcfcfc"/><stop offset="0.52" stop-color="#fff"/><stop offset="0.6" stop-color="#fafafa"/><stop offset="0.69" stop-color="#ebebeb"/><stop offset="0.79" stop-color="#d3d3d3"/><stop offset="0.89" stop-color="#b1b1b1"/><stop offset="1" stop-color="#868686"/><stop offset="1" stop-color="#858585"/></linearGradient><linearGradient id="linear-gradient-5" x1="79.76" y1="90.17" x2="60.25" y2="52.21" xlink:href="#linear-gradient-3"/><linearGradient id="linear-gradient-6" x1="69.6" y1="48.19" x2="69.6" y2="102.34" xlink:href="#linear-gradient-4"/><linearGradient id="linear-gradient-7" x1="12.09" y1="33.22" x2="78.06" y2="33.22" gradientUnits="userSpaceOnUse"><stop offset="0" stop-color="#a0a0a0"/><stop offset="1" stop-color="#858585"/></linearGradient><radialGradient id="radial-gradient" cx="46.12" cy="31.12" r="43.42" xlink:href="#linear-gradient-7"/><linearGradient id="linear-gradient-8" x1="17.97" y1="32.74" x2="71.97" y2="32.74" xlink:href="#linear-gradient-7"/><linearGradient id="linear-gradient-9" x1="19.79" y1="33.1" x2="74.5" y2="33.1" gradientUnits="userSpaceOnUse"><stop offset="0" stop-color="#858585"/><stop offset="1" stop-color="#b5b5b5"/></linearGradient><radialGradient id="radial-gradient-2" cx="47.14" cy="33.09" r="25.53" gradientUnits="userSpaceOnUse"><stop offset="0" stop-color="#898989"/><stop offset="1" stop-color="#9e9e9e"/></radialGradient><filter id="luminosity-noclip-3" x="21.61" y="7.56" width="51.06" height="51.06" filterUnits="userSpaceOnUse" color-interpolation-filters="sRGB"><feFlood flood-color="#fff" result="bg"/><feBlend in="SourceGraphic" in2="bg"/></filter><mask id="mask-3" x="21.61" y="7.56" width="51.06" height="51.06" maskUnits="userSpaceOnUse"><g class="cls-1"><path class="cls-2" d="M47.14,58.62A25.53,25.53,0,1,1,72.67,33.09,25.56,25.56,0,0,1,47.14,58.62Z"/></g></mask><linearGradient id="linear-gradient-10" x1="27.37" y1="49.14" x2="66.7" y2="17.21" gradientUnits="userSpaceOnUse"><stop offset="0" stop-color="#f3f3f3"/><stop offset="0.43" stop-color="#f3f3f3"/><stop offset="0.5" stop-color="#f3f3f3"/><stop offset="0.55" stop-color="#f3f3f3"/><stop offset="1" stop-color="#f3f3f3"/></linearGradient><filter id="luminosity-noclip-4" x="21.61" y="7.56" width="51.06" height="51.06" filterUnits="userSpaceOnUse" color-interpolation-filters="sRGB"><feFlood flood-color="#fff" result="bg"/><feBlend in="SourceGraphic" in2="bg"/></filter><mask id="mask-4" x="21.61" y="7.56" width="51.06" height="51.06" maskUnits="userSpaceOnUse"><g class="cls-3"><path class="cls-4" d="M72.67,33.09A25.53,25.53,0,1,1,47.14,7.56a25.29,25.29,0,0,1,11.47,2.73A25.55,25.55,0,0,1,72.67,33.09Z"/></g></mask><linearGradient id="linear-gradient-11" x1="49.61" y1="7.68" x2="44.66" y2="58.59" gradientUnits="userSpaceOnUse"><stop offset="0" stop-color="#f3f3f3"/><stop offset="0.5" stop-color="#f3f3f3"/><stop offset="0.55" stop-color="#f3f3f3"/><stop offset="1" stop-color="#f3f3f3"/></linearGradient></defs><title>2nd</title><g class="cls-5"><g id="Layer_2" data-name="Layer 2"><g id="Layer_1-2" data-name="Layer 1"><polygon class="cls-6" points="51.66 48.51 51.66 48.52 51.49 48.92 49.49 53.66 48.13 56.86 48.13 56.87 47.66 58.01 46.68 60.31 45.84 62.28 43.93 66.7 27.37 105.07 27.21 105.41 27.14 105.58 27.13 105.58 26.82 105.67 25.64 105.98 17.48 90.29 17.47 90.28 13.43 91.22 11.35 91.7 10.04 92 4.88 93.19 1.5 93.98 1.49 93.98 1.47 93.99 0 94.4 18.72 53.05 23.43 42.64 26.01 36.93 26.02 36.93 26.86 37.3 27.1 37.41 29.7 38.59 33.48 40.3 34.52 40.77 35.96 41.41 44.34 45.2 45.77 45.85 45.78 45.85 46.65 46.24 46.65 46.24 47.48 46.62 47.49 46.63 47.5 46.63 49.08 47.34 49.09 47.34 50.44 47.94 51.66 48.51"/><polygon class="cls-7" points="53.15 48.09 52.87 48.72 52.65 49.21 52.34 49.88 52.34 49.89 50.05 54.93 50.05 54.94 48.65 58.02 48.65 58.04 48.16 59.14 47.59 60.38 45.33 65.39 27.37 105.07 27.21 105.41 27.13 105.57 25.72 102.56 23.29 98.01 22.69 96.86 21.71 95.03 21.71 95.03 18.96 89.86 17.48 90.29 13.32 91.44 11.26 91.89 9.97 92.17 4.85 93.27 4.23 93.4 1.49 93.99 1.49 93.98 1.5 93.98 19.92 53.28 19.93 53.28 24.05 44.15 27.1 37.41 27.51 36.51 30.1 37.69 33.89 39.4 34.92 39.87 36.36 40.52 44.74 44.3 46.18 44.96 47.05 45.35 47.06 45.35 48.68 46.09 48.69 46.09 50.28 46.8 50.28 46.8 50.83 47.05 51.14 47.19 52.45 47.78 52.99 48.02 53.15 48.09"/><polygon class="cls-8" points="33.88 39.4 33.48 40.3 10.04 92 10.03 92.04 9.97 92.17 4.85 93.27 4.86 93.25 4.88 93.2 29.7 38.59 30.11 37.69 33.88 39.4"/><polygon class="cls-8" points="50.84 47.06 25.72 102.56 23.29 98.01 47.06 45.35 50.84 47.06"/><polygon class="cls-8" points="46.18 44.96 22.69 96.87 21.71 95.03 44.74 44.31 46.18 44.96"/><polygon class="cls-8" points="36.37 40.52 35.96 41.41 13.43 91.22 13.42 91.23 13.32 91.45 11.26 91.89 11.33 91.73 11.35 91.7 34.51 40.77 34.92 39.87 36.37 40.52"/><polygon class="cls-9" points="53.13 47.47 52.99 48.02 52.82 48.6 52.65 49.21 52.34 49.88 52.34 49.89 50.05 54.93 50.05 54.94 48.65 58.02 48.65 58.04 48.16 59.14 47.59 60.38 45.34 65.38 45.33 65.39 27.37 105.07 27.21 105.41 27.14 105.58 27.13 105.58 26.82 105.67 25.64 105.98 25.64 105.98 17.48 90.29 13.32 91.44 11.26 91.89 9.97 92.17 4.85 93.27 4.23 93.4 1.47 94.05 1.47 93.36 19.65 53.22 26.86 37.3 27.49 35.89 49.38 45.78 50.79 46.41 50.97 46.49 52.11 47.01 53.13 47.47"/><polygon class="cls-6" points="94.98 92.72 94.69 94.29 76.84 89.31 69.28 106.4 52.14 68.05 48.16 59.14 47.66 58.01 47.62 57.93 46.77 56.03 44.52 50.98 43.98 49.81 43.93 49.67 44.08 49.6 44.75 49.3 44.76 49.3 45.41 49 47.08 48.25 49.08 47.34 49.09 47.34 49.1 47.34 50.28 46.8 50.28 46.8 50.85 46.55 50.97 46.49 51.73 46.15 53.17 45.5 61.55 41.72 62.99 41.07 64.03 40.6 67.8 38.9 69.58 38.09 72.74 44.89 74.84 49.4 74.89 49.51 75.73 51.33 94.98 92.72"/><polygon class="cls-10" points="94.98 92.72 91.39 91.72 91.39 91.72 86.19 90.28 84.75 89.87 82.78 89.33 82.77 89.33 77.13 87.75 74.5 93.34 73.62 95.22 73.08 96.36 71.56 99.58 70.76 101.28 70.75 101.29 69.34 104.31 55.53 73.42 52.69 67.06 49.72 60.41 48.65 58.04 48.65 58.03 48.13 56.87 48.13 56.86 48.1 56.8 48.1 56.79 47.27 54.94 45.01 49.88 45.01 49.88 44.75 49.3 44.49 48.71 44.49 48.7 44.21 48.1 44.23 48.1 44.89 47.8 44.9 47.79 46.22 47.2 46.54 47.06 47.49 46.63 47.5 46.63 48.68 46.09 48.69 46.09 49.38 45.78 50.31 45.35 51.19 44.96 52.63 44.3 61.01 40.52 62.45 39.88 62.45 39.87 63.5 39.4 67.26 37.7 69.87 36.52 69.88 36.52 73.44 44.49 73.67 45.02 94.98 92.72"/><polygon class="cls-8" points="91.39 91.72 91.39 91.72 86.19 90.28 69.5 52.86 64.03 40.6 63.5 39.4 67.26 37.69 67.26 37.7 67.8 38.9 73.64 51.98 91.39 91.72"/><polygon class="cls-8" points="73.08 96.36 71.56 99.58 70.76 101.28 54.23 64.26 50.05 54.93 49.49 53.66 49.47 53.61 48.68 51.83 47.08 48.25 46.54 47.06 47.49 46.63 47.5 46.63 48.68 46.09 48.69 46.09 49.38 45.78 50.31 45.35 50.79 46.41 50.85 46.55 51.14 47.19 52.34 49.88 59.66 66.28 73.08 96.36"/><polygon class="cls-8" points="74.5 93.34 73.62 95.22 60.71 66.28 52.87 48.72 52.82 48.6 52.45 47.78 52.11 47.01 51.73 46.15 51.19 44.96 52.63 44.3 53.17 45.5 61.62 64.44 74.5 93.34"/><polygon class="cls-8" points="84.76 89.86 82.78 89.33 69.63 59.85 61.55 41.72 61.01 40.52 62.45 39.87 62.45 39.88 62.99 41.07 69.03 54.59 84.76 89.86"/><polygon class="cls-11" points="94.98 92.72 91.39 91.72 91.39 91.72 86.19 90.28 84.75 89.87 82.78 89.33 82.77 89.33 78.62 88.17 77.13 87.75 74.5 93.34 73.62 95.22 73.08 96.36 71.56 99.58 70.76 101.28 70.75 101.29 69.34 104.31 69.33 104.31 55.53 73.42 52.69 67.06 49.72 60.41 48.65 58.02 48.13 56.87 48.13 56.86 48.1 56.8 48.1 56.79 47.27 54.93 45.01 49.88 44.76 49.3 44.49 48.7 44.23 48.1 44.89 47.8 44.9 47.79 46.22 47.2 46.54 47.06 47.49 46.63 47.5 46.63 48.68 46.09 48.69 46.09 49.38 45.78 50.31 45.35 51.19 44.96 52.63 44.3 61.01 40.52 62.45 39.88 62.45 39.87 63.5 39.4 67.26 37.7 67.26 37.69 69.87 36.52 73.44 44.5 94.98 92.72"/><polygon class="cls-12" points="75.75 51.32 75.73 51.33 74.58 51.78 73.64 51.98 69.5 52.86 68.82 53 69.03 54.59 69.69 59.83 69.63 59.85 68.54 60.28 62.53 59.64 61.62 64.44 61.32 66.04 60.71 66.28 60.15 66.5 59.66 66.28 54.41 63.93 54.23 64.26 52.69 67.06 52.14 68.05 48.16 59.14 47.59 60.38 45.34 65.38 45.33 65.39 43.93 66.7 43.79 66.83 40.99 69.47 40.62 69.61 39.83 69.93 37.66 66.17 37.06 65.11 36.33 63.85 35.74 64.13 31.04 66.34 29.87 66.79 28.41 59.86 27.56 59.97 25.68 60.21 24.38 60.37 24.38 60.37 21.51 60.73 21.38 60.75 21.9 55.75 21.9 55.74 22.09 53.95 22.12 53.69 19.93 53.28 19.92 53.28 19.65 53.22 18.72 53.05 23.43 42.64 26.01 36.93 26.02 36.93 26.86 37.3 27.49 35.89 49.38 45.78 50.31 45.35 51.19 44.96 52.63 44.3 61.01 40.52 62.45 39.87 63.5 39.4 67.26 37.69 69.87 36.52 69.88 36.52 73.44 44.49 73.44 44.5 72.89 44.81 72.74 44.89 72.72 44.91 72.8 45.09 74.84 49.4 74.89 49.51 75.75 51.32"/><polygon class="cls-13" points="72.67 42.94 76.1 47.84 74.94 48.29 69.17 49.51 69 49.55 68.06 49.75 67.99 49.76 68.23 50.52 69.95 56.01 70.05 56.34 68.89 56.8 67.15 56.62 62.89 56.16 61.99 56.06 61.84 56.05 61.84 56.17 61.77 58.52 61.67 62.55 60.51 63.01 54.76 60.44 54.04 60.12 51.77 65.88 50.62 66.33 45.7 61.89 45.35 61.58 41.35 65.98 40.18 66.44 36.68 60.36 36.65 60.29 31.39 62.85 30.23 63.31 28.77 56.37 21.87 57.25 21.73 57.27 22.45 50.47 22.48 50.21 15.51 48.89 15.59 48.71 18.41 42.4 18.29 42.35 12.19 38.99 16.95 33.73 16.79 33.56 12.09 28.56 12.25 28.46 18.23 25.02 18.11 24.77 15.21 18.61 16.37 18.14 20.65 17.4 22.16 17.14 22.13 16.93 21.36 10.82 21.26 10.11 22.42 9.65 23.89 9.95 28.32 10.86 28.43 10.29 28.46 10.15 29.65 3.89 30.8 3.43 36.12 6.78 36.55 6 39.53 0.56 40.69 0.11 44.8 5.32 45.62 4.55 49.96 0.46 51.12 0 53.45 6.47 53.51 6.62 53.7 6.53 54.64 6.11 56.03 5.51 59.86 3.82 61.18 9.61 61.39 10.53 62.42 10.4 68.42 9.64 67.83 15.2 67.67 16.68 69.26 16.99 74.64 18.01 72.5 22.8 71.74 24.49 73.4 25.4 77.96 27.91 74.46 31.78 73.21 33.17 74.46 34.51 78.06 38.34 73.31 41.08 71.92 41.87 72.67 42.94"/><path class="cls-14" d="M28.4,49.36l-4.7,6.81-1.83,1.08h-.14l.72-6.79,2.14-1.21-7.15-1.34-1.85.79,2.82-6.3-.11-.06,2-.63-6-3.42-2.1.69L17,33.73l-.16-.17L18.85,33l.42-1.86L14.1,28l-1.85.5,6-3.44-.11-.26,1.67-.5s3.43,6.08,3.25,6.31S28.4,49.36,28.4,49.36Z"/><polygon class="cls-15" points="69.16 49.34 69.17 49.51 69.37 51.07 70.02 56.07 70.05 56.34 66.49 55.95 63 55.58 62.89 56.16 62.33 59.08 61.67 62.55 55.19 59.66 54.76 60.44 51.77 65.88 46.52 61.12 45.7 61.89 41.35 65.98 37.81 59.83 36.68 60.36 31.39 62.85 29.93 55.91 22.89 56.81 22.91 56.64 23.63 49.81 23.64 49.75 16.67 48.42 16.77 48.2 19.52 42.05 19.57 41.95 19.47 41.89 13.43 38.58 13.35 38.54 17.98 33.41 18.1 33.27 18.05 33.21 17.96 33.13 13.31 28.17 13.25 28.1 19.17 24.69 19.39 24.55 19.32 24.4 19.28 24.32 16.89 19.22 16.79 19.03 16.37 18.14 20.51 17.27 22.13 16.93 22.94 16.76 23.31 16.68 23.26 16.29 23.23 16.06 22.74 12.21 22.52 10.48 22.42 9.65 23.73 9.79 26.46 10.08 28.43 10.29 28.61 10.31 29.17 10.36 29.47 10.4 29.53 10.12 30.8 3.43 36.55 6 37.28 6.33 40.69 0.11 45.62 4.55 45.96 4.86 51.12 0 54.64 6.11 54.66 6.15 56.03 5.51 61.08 3.13 62.54 10.07 69.59 9.18 68.84 16.24 75.79 17.55 72.94 23.96 72.9 24.03 72.98 24.08 79.12 27.45 74.49 32.57 74.36 32.71 74.5 32.85 79.22 37.88 73.24 41.33 73.07 41.42 73.15 41.6 76.1 47.84 69.19 49.29 69.18 49.29 69.16 49.3 69.16 49.34"/><path class="cls-16" d="M72,33.17a28.67,28.67,0,0,1-2.68,12.3c-.14.3-.28.59-.44.88s-.35.67-.54,1l0,.09c-.17.28-.33.56-.51.83s-.33.52-.51.79c-.38.54-.78,1.08-1.2,1.59-.16.2-.32.4-.49.59a24.14,24.14,0,0,1-4,3.73c-.19.15-.38.28-.58.42A26.24,26.24,0,0,1,45.84,60,29.21,29.21,0,0,1,38,58.87l-.14,0A27.28,27.28,0,0,1,19.52,42.05a1,1,0,0,1-.05-.16A26,26,0,0,1,18,33.41a2.53,2.53,0,0,1,0-.28v-.05a29.24,29.24,0,0,1,1.2-8.39c0-.12.07-.25.11-.37a26.11,26.11,0,0,1,1-2.77c.07-.14.13-.29.2-.43s.09-.22.14-.33c.21-.45.43-.89.65-1.32a24.85,24.85,0,0,1,1.66-2.71c.1-.16.21-.31.32-.47,0,0,0,0,0,0a1.83,1.83,0,0,1,.13-.16c.43-.61.91-1.2,1.4-1.77l.64-.7h0l.29-.31c.31-.32.64-.64,1-1s.48-.46.74-.67c.54-.46,1.1-.9,1.67-1.32l0,0c.12-.08.23-.17.36-.25a25.81,25.81,0,0,1,10-4.21v0a36.53,36.53,0,0,1,9.15-.06A12.86,12.86,0,0,1,52.9,7.08a1.32,1.32,0,0,0,1.17.07A27.47,27.47,0,0,1,65.7,15.51l0,.06.33.41s0,0,0,0h0A28.39,28.39,0,0,1,70,22.89h0A28.2,28.2,0,0,1,72,33.17Z"/><path class="cls-17" d="M74.49,32.57c0-.26,0-.53,0-.79A26.28,26.28,0,0,0,73.4,25.4q-.2-.67-.42-1.32a.56.56,0,0,0,0-.12c-.14-.38-.28-.77-.44-1.16A27.27,27.27,0,0,0,69.26,17c-.45-.62-.93-1.21-1.43-1.79a27.49,27.49,0,0,0-5.41-4.8c-.41-.28-.82-.54-1.24-.79A27,27,0,0,0,53.7,6.53l-.25-.06L53,6.37a33.4,33.4,0,0,0-4.28-.56,24.25,24.25,0,0,0-8.18.69v0a27.34,27.34,0,0,0-10.19,5l-.31.26a24.62,24.62,0,0,0-2,1.78,3.5,3.5,0,0,0-.27.28,23.56,23.56,0,0,0-1.59,1.74s0,0,0,0a26.32,26.32,0,0,0-2.95,4.34c-.16.27-.3.56-.45.84h0a27.88,27.88,0,0,0-2,5.18c0,.24-.11.48-.17.71A27.41,27.41,0,0,0,37.83,58.82l.06,0,.07,0a27.61,27.61,0,0,0,9.18,1.57,27.09,27.09,0,0,0,13.18-3.39c.51-.26,1-.56,1.5-.88h0l.15-.1a26.78,26.78,0,0,0,2.66-2c.61-.51,1.21-1,1.78-1.63a2.66,2.66,0,0,0,.23-.24h0a20.93,20.93,0,0,0,1.56-1.71c.09-.11.17-.22.27-.33s.34-.42.5-.64l.16-.21h0l0,0c.4-.52.77-1.07,1.12-1.63a25.42,25.42,0,0,0,2.37-4.72c.18-.45.34-.88.48-1.34,0-.09.06-.19.09-.27a1.11,1.11,0,0,0,.07-.26,26.37,26.37,0,0,0,1.15-6.56c0-.47,0-.94,0-1.41v-.25A2.62,2.62,0,0,0,74.49,32.57Z"/><path class="cls-18" d="M47.14,58.62A25.53,25.53,0,1,1,72.67,33.09,25.56,25.56,0,0,1,47.14,58.62Z"/><path class="cls-19" d="M57,37.57a45,45,0,0,1-.27,4.7c-.12,0-.68,1-.89,1.11h0l-12.86,0h-5a35.87,35.87,0,0,1-1.06-3.43c0-.13.94-1,.91-1.13a57.89,57.89,0,0,0,5.88-4.74A38.63,38.63,0,0,0,47,30.76a8.2,8.2,0,0,0,1.87-4.89,4.83,4.83,0,0,0-.91-3,3,3,0,0,0-2.4-1.11,5.47,5.47,0,0,0-2,.36l-.81,3.53c-.12,0-.8,1.13-.92,1.13h0c-1.37,0-2.77-.36-4-.43.11-2.37.27-4.74.43-7.07,0-.16.9-1,.91-1.13a22.42,22.42,0,0,1,7.7-1.34c3.63,0,5.8.71,7.42,2.13a7.18,7.18,0,0,1,2.45,5.45,10.71,10.71,0,0,1-3.06,6.93A28.83,28.83,0,0,1,48,36.64c-.57.47-1.07.84-1.55,1.19,2.87,0,8.17-.3,10.48-.34l0,0Z"/><path class="cls-20" d="M56.91,37.51l0,0c-2.31,0-7.61.29-10.48.34h-.5v-.15c1-.71,1.85-1.26,3-2.17a33.76,33.76,0,0,0,4.72-4.24,10.71,10.71,0,0,0,3.06-6.93,7.18,7.18,0,0,0-2.45-5.45c-1.62-1.42-3.79-2.13-7.42-2.13a22.42,22.42,0,0,0-7.7,1.34c0,.16-.9,1-.91,1.13-.15,2.18.59,3.73.48,5.93.79,0,1.37.73,2.07,1.19a2.22,2.22,0,0,0,1,.38h0c.12,0,.8-1.13.92-1.13l.81-3.53.09-.42a1.24,1.24,0,0,0,0-.16.57.57,0,0,1,.16-.23,4.92,4.92,0,0,1,2.65-.67,3,3,0,0,1,2.4,1.1,4.83,4.83,0,0,1,.91,3c0,2.19-1.13,4.14-2.78,6a38.63,38.63,0,0,1-3.34,3.29,57.89,57.89,0,0,1-5.88,4.74c0,.13-1,1-.91,1.13.27,1,1.63,1.36,2,2.31h5c2.72,0,9.49,1.16,11.95,1.16h0c.21-.1.77-1.11.89-1.11a45,45,0,0,0,.27-4.7Z"/><path class="cls-21" d="M43.65,21.5a1.24,1.24,0,0,1,0,.16l-.09.42-.81,3.53c-.12,0-.8,1.13-.92,1.13h0a2.22,2.22,0,0,1-1-.38,7.72,7.72,0,0,1,.09-.94,6.69,6.69,0,0,1,1.38-2.86c.19-.24,1-1.29,1.39-1.12Z"/><path class="cls-21" d="M57,37.57a45,45,0,0,1-.27,4.7c-.12,0-.68,1-.89,1.11h0l-.23-.09.25-4.41.18-.22.9-1.14Z"/><path class="cls-22" d="M56,38.65l0,0c-2.45,0-8.24.31-11,.35v-.15c.49-.35.95-.65,1.41-1s1-.72,1.55-1.19a28.83,28.83,0,0,0,5.63-5.36,9.8,9.8,0,0,0,2.15-5.8A7.18,7.18,0,0,0,53.28,20c-1.62-1.43-3.79-2.13-7.42-2.13a22.33,22.33,0,0,0-7.7,1.34c-.16,2.33-.32,4.7-.43,7.07,1.25.07,2.65.42,4,.43h0l.91-3.95a.59.59,0,0,1,.2-.39,3.25,3.25,0,0,1,.62-.32,5.47,5.47,0,0,1,2-.36A3,3,0,0,1,48,22.83a4.83,4.83,0,0,1,.91,3A8.2,8.2,0,0,1,47,30.76a31.18,31.18,0,0,1-4.25,4.42,60.5,60.5,0,0,1-5.88,4.74,35.87,35.87,0,0,0,1.06,3.43h5l12.86,0v0c.15-1.45.27-3.14.27-4.67Z"/><g class="cls-23"><path class="cls-24" d="M47.14,58.62A25.53,25.53,0,1,1,72.67,33.09,25.56,25.56,0,0,1,47.14,58.62Z"/></g><g class="cls-25"><path class="cls-26" d="M72.67,33.09A25.53,25.53,0,1,1,47.14,7.56a25.29,25.29,0,0,1,11.47,2.73A25.55,25.55,0,0,1,72.67,33.09Z"/></g><path class="cls-27" d="M72.67,33.09A25.56,25.56,0,0,1,48.22,58.6C61.26,57.47,71,46.5,71,33.17,71,19.09,60.08,7.64,46,7.64l-1.16,0c.76-.06,1.52-.1,2.3-.1A25.56,25.56,0,0,1,72.67,33.09Z"/><path class="cls-20" d="M67.92,44.16a5.24,5.24,0,0,1-1.72,2.29,2.5,2.5,0,0,1-1.33.28h0a1,1,0,0,1-.89-.61c-.25-.67.35-1.62,1.33-2.1a1.92,1.92,0,0,1,.74-.18A5.05,5.05,0,0,1,67.92,44.16Z"/><path class="cls-20" d="M62.64,45.67a.72.72,0,0,1-.64.13,2.49,2.49,0,0,1-1.41-1.21,5.89,5.89,0,0,1-.45-2.87,1.09,1.09,0,0,0,0-.12,4.34,4.34,0,0,1,2.29,1.46C63.06,44.07,63.15,45.25,62.64,45.67Z"/><path class="cls-20" d="M65.25,48.89s-1,1.63-2,1.91a2.43,2.43,0,0,1-.91.09A1.25,1.25,0,0,1,61.07,50c-.15-.7.59-1.51,1.63-1.8l.25,0A4.58,4.58,0,0,1,65.25,48.89Z"/><path class="cls-20" d="M59.37,49.52a.6.6,0,0,1-.35,0,2.47,2.47,0,0,1-1.19-1.89,5.46,5.46,0,0,1,.46-2.71c.06-.16.11-.26.11-.26A5.13,5.13,0,0,1,60,47C60.29,48.23,60,49.35,59.37,49.52Z"/><path class="cls-20" d="M69.91,38a5.61,5.61,0,0,1-1.34,2.61,2.25,2.25,0,0,1-1.61.55.86.86,0,0,1-.64-.41c-.34-.61.11-1.67,1-2.35a2.78,2.78,0,0,1,1.54-.46h0A5.56,5.56,0,0,1,69.91,38Z"/><path class="cls-20" d="M65.26,40.7a.92.92,0,0,1-1,.37A2.59,2.59,0,0,1,63,40.46a5.82,5.82,0,0,1-1.24-2.68l.33,0h.07a3.42,3.42,0,0,1,2.17.54C65.21,39,65.62,40.11,65.26,40.7Z"/><path class="cls-20" d="M67.71,27.87c-.39,1.1-1.14,1.79-1.71,1.61h0l-.09,0c-.58-.29-.71-1.46-.29-2.61A4.32,4.32,0,0,1,67.25,25l.33-.2A6.13,6.13,0,0,1,67.71,27.87Z"/><path class="cls-20" d="M65.09,30a1.16,1.16,0,0,1-1.28.61,2.83,2.83,0,0,1-1-.28A5.24,5.24,0,0,1,61.14,28a5.46,5.46,0,0,1,1.49-.32,2.24,2.24,0,0,1,1.12.17C64.73,28.35,65.34,29.29,65.09,30Z"/><path class="cls-20" d="M69,34.34c-.55.78-1.28,1.21-1.79,1.08a.58.58,0,0,1-.32-.16c-.48-.46-.32-1.63.35-2.59a3.68,3.68,0,0,1,2-1.19c.23-.07.39-.1.39-.1A6.12,6.12,0,0,1,69,34.34Z"/><path class="cls-20" d="M65.43,35.22a1,1,0,0,1-1.13.49,2.75,2.75,0,0,1-1.12-.43,5.45,5.45,0,0,1-1.51-2.48,5.51,5.51,0,0,1,1-.15h0a2.75,2.75,0,0,1,1.57.31C65.22,33.57,65.74,34.58,65.43,35.22Z"/><path class="cls-20" d="M65.41,21.91c-.21,1.07-.81,1.82-1.34,1.68l-.06,0c-.5-.19-.74-1.14-.54-2.17a4.07,4.07,0,0,1,1.14-1.82l.28-.26A5.22,5.22,0,0,1,65.41,21.91Z"/><path class="cls-20" d="M63.7,25c-.11.54-.73.84-1.47.77a2.07,2.07,0,0,1-.41-.07C60.9,25.47,60,24.05,60,24.05a4.53,4.53,0,0,1,1.67-.63,1.26,1.26,0,0,1,.55,0C63.17,23.69,63.81,24.39,63.7,25Z"/><path class="cls-20" d="M62.48,17.75c-.06.95-.48,1.69-1,1.65a.32.32,0,0,1-.16,0,1.86,1.86,0,0,1-.6-1.74,3.77,3.77,0,0,1,.75-1.73c.13-.18.22-.28.22-.28A4.42,4.42,0,0,1,62.48,17.75Z"/><path class="cls-20" d="M61.56,20.91c0,.56-.71,1-1.53.89h0a3.48,3.48,0,0,1-1.69-1.14,3.83,3.83,0,0,1,1.56-.85,1.24,1.24,0,0,1,.27,0C61,19.86,61.6,20.36,61.56,20.91Z"/><path class="cls-20" d="M60,18a.79.79,0,0,1-.88.34,2,2,0,0,1-.83-.36,4.22,4.22,0,0,1-1.09-1.93,5.15,5.15,0,0,1,.62-.07,2.22,2.22,0,0,1,1.35.27C59.84,16.78,60.21,17.56,60,18Z"/><path class="cls-22" d="M67.53,44.16a5.27,5.27,0,0,1-1.71,2.29,2.76,2.76,0,0,1-.95.28h0a1,1,0,0,1-.89-.61c-.25-.67.35-1.62,1.33-2.1a1.92,1.92,0,0,1,.74-.18A5.33,5.33,0,0,1,67.53,44.16Z"/><path class="cls-22" d="M62.25,45.67a.67.67,0,0,1-.25.13,2.49,2.49,0,0,1-1.41-1.21,5.89,5.89,0,0,1-.45-2.87A3.75,3.75,0,0,1,62,43.06C62.67,44.07,62.76,45.25,62.25,45.67Z"/><path class="cls-22" d="M64.85,48.89s-1,1.63-2,1.91a2.47,2.47,0,0,1-.52.09A1.25,1.25,0,0,1,61.07,50c-.15-.7.59-1.51,1.63-1.8l.25,0A5,5,0,0,1,64.85,48.89Z"/><path class="cls-22" d="M59,49.5a2.47,2.47,0,0,1-1.19-1.89,5.46,5.46,0,0,1,.46-2.71A4.55,4.55,0,0,1,59.65,47C59.89,48.21,59.61,49.3,59,49.5Z"/><path class="cls-22" d="M69.52,38a5.66,5.66,0,0,1-1.33,2.61,2.72,2.72,0,0,1-1.23.55.86.86,0,0,1-.64-.41c-.34-.61.11-1.67,1-2.35a2.78,2.78,0,0,1,1.54-.46h0A4.35,4.35,0,0,1,69.52,38Z"/><path class="cls-22" d="M64.87,40.7a.8.8,0,0,1-.58.37A2.59,2.59,0,0,1,63,40.46a5.82,5.82,0,0,1-1.24-2.68l.33,0h.07A3.05,3.05,0,0,1,64,38.3C64.82,39,65.23,40.11,64.87,40.7Z"/><path class="cls-22" d="M67.32,27.87A2.48,2.48,0,0,1,66,29.48h0l-.09,0c-.58-.29-.71-1.46-.29-2.61A4.32,4.32,0,0,1,67.25,25,5.84,5.84,0,0,1,67.32,27.87Z"/><path class="cls-22" d="M64.7,30a1,1,0,0,1-.89.61,2.83,2.83,0,0,1-1-.28A5.24,5.24,0,0,1,61.14,28a5.46,5.46,0,0,1,1.49-.32,1.77,1.77,0,0,1,.72.17C64.34,28.35,65,29.29,64.7,30Z"/><path class="cls-22" d="M68.56,34.34a2.47,2.47,0,0,1-1.4,1.08.58.58,0,0,1-.32-.16c-.48-.46-.32-1.63.35-2.59a3.68,3.68,0,0,1,2-1.19A5.87,5.87,0,0,1,68.56,34.34Z"/><path class="cls-22" d="M65,35.22a.92.92,0,0,1-.74.49,2.75,2.75,0,0,1-1.12-.43,5.45,5.45,0,0,1-1.51-2.48,5.51,5.51,0,0,1,1-.15h0a2.46,2.46,0,0,1,1.17.31C64.83,33.57,65.34,34.58,65,35.22Z"/><path class="cls-22" d="M65,21.91a2.19,2.19,0,0,1-1,1.66c-.5-.19-.74-1.14-.54-2.17a4.07,4.07,0,0,1,1.14-1.82A4.6,4.6,0,0,1,65,21.91Z"/><path class="cls-22" d="M63.3,25a1.09,1.09,0,0,1-1.07.77,2.07,2.07,0,0,1-.41-.07C60.9,25.47,60,24.05,60,24.05a4.53,4.53,0,0,1,1.67-.63l.16,0C62.78,23.69,63.43,24.39,63.3,25Z"/><path class="cls-22" d="M62.09,17.75a2,2,0,0,1-.73,1.61,1.86,1.86,0,0,1-.6-1.74,3.77,3.77,0,0,1,.75-1.73A3.82,3.82,0,0,1,62.09,17.75Z"/><path class="cls-22" d="M61.17,20.91c0,.47-.52.83-1.17.89a3.48,3.48,0,0,1-1.69-1.14,3.83,3.83,0,0,1,1.56-.85C60.63,19.91,61.2,20.38,61.17,20.91Z"/><path class="cls-22" d="M59.57,18a.65.65,0,0,1-.49.34,2,2,0,0,1-.83-.36,4.22,4.22,0,0,1-1.09-1.93,5.15,5.15,0,0,1,.62-.07,2,2,0,0,1,1,.27C59.44,16.78,59.81,17.56,59.57,18Z"/><path class="cls-20" d="M30.19,45.78c-.25.71-1.25.85-2.24.34l-.11-.07a5.69,5.69,0,0,1-1.61-2.33,4.14,4.14,0,0,1,2.44-.23l.17.08C29.83,44.08,30.44,45.07,30.19,45.78Z"/><path class="cls-20" d="M33.58,44.17C33,45.24,32,45.75,31.52,45.3c0,0,0,0,0,0-.47-.48-.36-1.66.25-2.7a3.86,3.86,0,0,1,1.92-1.41L34,41A6.77,6.77,0,0,1,33.58,44.17Z"/><path class="cls-20" d="M33.1,49.87c-.14.75-1.1,1.11-2.16.82a1.8,1.8,0,0,1-.46-.23,6.1,6.1,0,0,1-1.57-1.78,3.94,3.94,0,0,1,2.55-.7l.31.11A1.81,1.81,0,0,1,33.1,49.87Z"/><path class="cls-20" d="M36.34,47.33c-.24,1.28-.93,2.18-1.55,2a.56.56,0,0,1-.28-.17,3,3,0,0,1-.38-2.46,4.94,4.94,0,0,1,1.41-2.26l.23-.22A6.52,6.52,0,0,1,36.34,47.33Z"/><path class="cls-20" d="M27.83,40.14c-.3.56-1.1.58-1.9.1a0,0,0,0,1,0,0,2.33,2.33,0,0,1-.35-.23,6.09,6.09,0,0,1-1.33-2.74,4.57,4.57,0,0,1,2.07.13,1.78,1.78,0,0,1,.52.29C27.72,38.4,28.18,39.5,27.83,40.14Z"/><path class="cls-20" d="M32.39,37a6.09,6.09,0,0,1-1.24,2.8c-.77.68-1.65.85-2.09.45a.93.93,0,0,1-.16-.18c-.36-.63.05-1.75.92-2.52A3.26,3.26,0,0,1,32,37,3.75,3.75,0,0,1,32.39,37Z"/><path class="cls-20" d="M28.25,28.29a.76.76,0,0,1-.82-.15,3.22,3.22,0,0,1-1-1.5,6.59,6.59,0,0,1,.12-3.14v0a4.87,4.87,0,0,1,2,2.09C29,26.76,28.83,28,28.25,28.29Z"/><path class="cls-20" d="M33,26.78s-.74,1.89-1.73,2.4a1.85,1.85,0,0,1-1.95.06.8.8,0,0,1-.28-.41c-.25-.7.36-1.69,1.35-2.21a3.19,3.19,0,0,1,2.2,0Z"/><path class="cls-20" d="M27.31,34.38c-.29.29-.74.26-1.21-.05a3,3,0,0,1-.9-.91,6.67,6.67,0,0,1-.61-3.1,4.74,4.74,0,0,1,1.08.36,3.09,3.09,0,0,1,1.29,1C27.64,32.68,27.8,33.9,27.31,34.38Z"/><path class="cls-20" d="M32.49,31.81A5.73,5.73,0,0,1,31,34.41a1.77,1.77,0,0,1-2,.23.71.71,0,0,1-.23-.3c-.31-.66.21-1.73,1.15-2.36a4,4,0,0,1,2.61-.17Z"/><path class="cls-20" d="M30.1,22.15a.63.63,0,0,1-.59-.18,2.79,2.79,0,0,1-.76-1.58,5.41,5.41,0,0,1,.46-2.59.87.87,0,0,1,.06-.13,4.8,4.8,0,0,1,1.42,2.18C30.9,21,30.63,22,30.1,22.15Z"/><path class="cls-20" d="M34.14,22.63s-.87,1.48-1.79,1.74a1.84,1.84,0,0,1-1.53-.18.84.84,0,0,1-.35-.55C30.35,23,31,22.25,31.91,22a2.52,2.52,0,0,1,1.52.24A5.86,5.86,0,0,1,34.14,22.63Z"/><path class="cls-20" d="M32.64,17.76a.51.51,0,0,1-.42-.2A2.38,2.38,0,0,1,31.69,16,4.44,4.44,0,0,1,32.32,14l.12-.18a4.48,4.48,0,0,1,1,2.1C33.46,16.88,33.12,17.72,32.64,17.76Z"/><path class="cls-20" d="M35.86,19.08s-.91,1.13-1.73,1.19A1.65,1.65,0,0,1,33,20a.83.83,0,0,1-.4-.65c0-.59.61-1.11,1.42-1.17a1.46,1.46,0,0,1,.64.12A4.19,4.19,0,0,1,35.86,19.08Z"/><path class="cls-20" d="M37,14.27a4.49,4.49,0,0,1-1.09,2c-.61.44-1.27.51-1.59.18a.48.48,0,0,1-.12-.16c-.25-.5.12-1.32.83-1.83a2.29,2.29,0,0,1,1.55-.28A3.11,3.11,0,0,1,37,14.27Z"/><path class="cls-22" d="M29.81,45.59c-.23.64-1.08.82-2,.46a5.69,5.69,0,0,1-1.61-2.33,4.14,4.14,0,0,1,2.44-.23A2.05,2.05,0,0,1,29.81,45.59Z"/><path class="cls-22" d="M33.2,44c-.5.86-1.2,1.36-1.72,1.28-.47-.48-.36-1.66.25-2.7a3.86,3.86,0,0,1,1.92-1.41A6.08,6.08,0,0,1,33.2,44Z"/><path class="cls-22" d="M32.72,49.68c-.14.75-1.11,1.11-2.15.82a.25.25,0,0,1-.09,0,6.1,6.1,0,0,1-1.57-1.78,3.94,3.94,0,0,1,2.55-.7l.31.11A1.66,1.66,0,0,1,32.72,49.68Z"/><path class="cls-22" d="M36,47.14c-.23,1.21-.86,2.08-1.45,2a3,3,0,0,1-.38-2.46,4.94,4.94,0,0,1,1.41-2.26A5.58,5.58,0,0,1,36,47.14Z"/><path class="cls-22" d="M27.45,40c-.25.47-.86.56-1.52.29a0,0,0,0,1,0,0,2.33,2.33,0,0,1-.35-.23,6.09,6.09,0,0,1-1.33-2.74,4.57,4.57,0,0,1,2.07.13l.13.09C27.35,38.21,27.79,39.31,27.45,40Z"/><path class="cls-22" d="M32,37a5.6,5.6,0,0,1-1.2,2.63,2.12,2.12,0,0,1-1.71.64.93.93,0,0,1-.16-.18c-.36-.63.05-1.75.92-2.52A3.26,3.26,0,0,1,32,37Z"/><path class="cls-22" d="M27.87,28.1a.61.61,0,0,1-.44,0,3.22,3.22,0,0,1-1-1.5,6.59,6.59,0,0,1,.12-3.14,4.37,4.37,0,0,1,1.59,1.86C28.58,26.57,28.45,27.79,27.87,28.1Z"/><path class="cls-22" d="M32.62,26.65A5.28,5.28,0,0,1,30.92,29a2.2,2.2,0,0,1-1.57.25.8.8,0,0,1-.28-.41c-.25-.7.36-1.69,1.35-2.21A3.19,3.19,0,0,1,32.62,26.65Z"/><path class="cls-22" d="M26.93,34.19a.76.76,0,0,1-.83.14,3,3,0,0,1-.9-.91,6.67,6.67,0,0,1-.61-3.1,4.74,4.74,0,0,1,1.08.36,2.66,2.66,0,0,1,.91.79C27.26,32.49,27.42,33.71,26.93,34.19Z"/><path class="cls-22" d="M32.08,31.72a5.41,5.41,0,0,1-1.48,2.5,2.16,2.16,0,0,1-1.64.42.71.71,0,0,1-.23-.3c-.31-.66.21-1.73,1.15-2.36A3.21,3.21,0,0,1,32.08,31.72Z"/><path class="cls-22" d="M29.72,22a.5.5,0,0,1-.21,0,2.79,2.79,0,0,1-.76-1.58,5.41,5.41,0,0,1,.46-2.59,4.16,4.16,0,0,1,1.1,1.86C30.51,20.78,30.25,21.81,29.72,22Z"/><path class="cls-22" d="M33.76,22.44s-.87,1.49-1.79,1.74a2.14,2.14,0,0,1-1.15,0,.84.84,0,0,1-.35-.55C30.35,23,31,22.25,31.91,22a2.52,2.52,0,0,1,1.52.24Z"/><path class="cls-22" d="M32.26,17.56h0A2.38,2.38,0,0,1,31.69,16,4.44,4.44,0,0,1,32.32,14,3.82,3.82,0,0,1,33,15.69C33.08,16.69,32.74,17.53,32.26,17.56Z"/><path class="cls-22" d="M35.47,18.89s-.9,1.13-1.72,1.19A1.82,1.82,0,0,1,33,20a.83.83,0,0,1-.4-.65c0-.59.61-1.11,1.42-1.17a1.46,1.46,0,0,1,.64.12A4,4,0,0,1,35.47,18.89Z"/><path class="cls-22" d="M36.59,14.21a4.05,4.05,0,0,1-1.05,1.9,1.72,1.72,0,0,1-1.21.37.48.48,0,0,1-.12-.16c-.25-.5.12-1.32.83-1.83A2.29,2.29,0,0,1,36.59,14.21Z"/><path class="cls-28" d="M72.67,33.09A25.56,25.56,0,0,1,47.14,58.62c-.69,0-1.38,0-2.06-.09A25.58,25.58,0,0,1,23.7,43.21c37.89,8.85,35.69-25.92,35-32.09a4,4,0,0,0,.17-.7,24.74,24.74,0,0,1,10.7,10.51A25.36,25.36,0,0,1,72.67,33.09Z"/><path class="cls-29" d="M72.67,33.09A25.56,25.56,0,0,1,47.14,58.62c-.69,0-1.38,0-2.06-.09,17.32-6,22.56-24.44,24.14-34.86l1.17-1.12A23.83,23.83,0,0,1,72.67,33.09Z"/><polygon class="cls-30" points="67.15 56.62 62.89 56.16 62.33 59.08 61.77 58.52 60.31 57.06 59.53 56.28 58.96 55.71 58.56 55.31 55.58 52.34 50.79 47.54 45.8 42.55 43.09 39.84 31.92 28.68 31.63 28.38 30.08 26.84 28.3 25.06 26.94 23.7 26.93 23.69 24.53 21.27 23.17 19.92 21.8 18.55 20.65 17.4 20.51 17.27 22.13 16.93 21.36 10.82 24.84 14.3 26.12 15.59 27.42 16.89 28.98 18.45 30.33 19.79 32.51 21.97 33.45 22.91 33.74 23.21 43.09 32.55 50.3 39.77 50.32 39.78 59.52 48.98 59.76 49.22 62.75 52.22 63.34 52.8 63.35 52.81 66.49 55.95 67.15 56.62"/><polygon class="cls-30" points="70.02 56.07 69.95 56.01 66.43 52.48 64.17 50.23 63.97 50.03 62.31 48.37 60.6 46.66 52.05 38.11 51.53 37.58 50.32 36.38 43.09 29.15 34.21 20.27 27.75 13.81 26.51 12.57 23.89 9.95 23.73 9.79 26.46 10.08 28.43 10.29 28.46 10.15 28.88 10.57 30.05 11.75 31.35 13.05 32.3 14 32.43 14.13 33.07 14.76 33.07 14.78 34.15 15.84 43.09 24.79 50.32 32.01 51.53 33.22 53.98 35.68 60.13 41.83 62.32 44.02 62.96 44.66 63.94 45.64 65.01 46.71 65.04 46.74 66.37 48.06 67.19 48.88 67.28 48.97 68.06 49.75 68.5 50.19 69.37 51.07 70.02 56.07"/></g></g></g></svg>